# Blender v2.83.1 OBJ File: 'Abberation1.blend'
# www.blender.org
mtllib Abberation1.mtl
o Icosphere
v 0.000000 -1.000000 0.000000
v 0.403939 -0.250676 0.293475
v -0.154287 -0.250676 0.474857
v -0.499299 -0.250676 -0.000000
v -0.154287 -0.250676 -0.474857
v 0.403939 -0.250676 -0.293475
v 0.076743 0.513764 0.236196
v -0.200922 0.513764 0.145976
v -0.200922 0.513764 -0.145976
v 0.076743 0.513764 -0.236196
v 0.248353 0.513764 -0.000000
v -0.000001 0.667255 -0.000000
vt 0.488281 0.042501
vt 0.730559 0.491936
vt 0.395742 0.491936
vt 0.312258 0.491936
vt 0.664304 0.491936
vt 0.203468 0.491936
vt 0.488281 0.491936
vt 0.773095 0.491936
vt 0.395742 0.491936
vt 0.730559 0.491936
vt 0.488281 0.950438
vt 0.534311 0.950438
vt 0.400727 0.950438
vt 0.575836 0.950438
vt 0.534311 0.950438
vt 0.346614 0.950438
vt 0.367771 0.950438
vt 0.367771 0.950438
vt 0.629949 0.950438
vt 0.534311 0.549739
vt 0.637241 0.691406
vt 0.488281 0.691406
vt 0.367771 0.603852
vt 0.367771 0.778961
vt 0.534311 0.833074
vn 0.2720 -0.4745 0.8372
vn 0.8802 -0.4745 0.0000
vn -0.7121 -0.4745 0.5174
vn -0.7121 -0.4745 -0.5174
vn 0.2720 -0.4745 -0.8372
vn 0.9799 0.1994 0.0000
vn 0.3028 0.1994 0.9319
vn -0.7928 0.1994 0.5760
vn -0.7928 0.1994 -0.5760
vn 0.3028 0.1994 -0.9319
vn 0.7536 0.3636 0.5476
vn -0.2879 0.3636 0.8860
vn -0.9316 0.3636 0.0000
vn -0.2879 0.3636 -0.8860
vn 0.7536 0.3636 -0.5476
vn 0.4911 0.7947 0.3568
vn -0.1876 0.7947 0.5774
vn -0.6071 0.7947 0.0000
vn -0.1876 0.7947 -0.5774
vn 0.4911 0.7947 -0.3568
usemtl None
s off
f 1/1/1 2/2/1 3/3/1
f 2/4/2 1/1/2 6/5/2
f 1/1/3 3/6/3 4/7/3
f 1/1/4 4/7/4 5/8/4
f 1/1/5 5/9/5 6/10/5
f 2/4/6 6/5/6 11/11/6
f 3/3/7 2/2/7 7/12/7
f 4/7/8 3/6/8 8/13/8
f 5/8/9 4/7/9 9/14/9
f 6/10/10 5/9/10 10/15/10
f 2/4/11 11/11/11 7/16/11
f 3/3/12 7/12/12 8/17/12
f 4/7/13 8/13/13 9/14/13
f 5/9/14 9/18/14 10/15/14
f 6/5/15 10/19/15 11/11/15
f 7/20/16 11/21/16 12/22/16
f 8/23/17 7/20/17 12/22/17
f 9/24/18 8/23/18 12/22/18
f 10/25/19 9/24/19 12/22/19
f 11/21/20 10/25/20 12/22/20
