# Blender v2.83.1 OBJ File: 'Abberation.blend'
# www.blender.org
mtllib Abberation.mtl
o Cone
v 0.000000 2.101034 -0.587785
v 0.000000 1.270494 -0.951056
v 0.000000 0.770494 -0.587785
v 0.509037 2.101034 -0.293893
v 0.634625 1.888528 -0.373146
v 0.634625 1.270494 -0.373146
v 0.509037 0.770494 -0.293893
v 0.509037 2.101034 0.293893
v 0.823639 1.888528 0.475528
v 0.823639 1.270494 0.475528
v 0.509037 0.770494 0.293893
v -0.000000 2.101034 0.587785
v -0.000000 1.888528 0.951057
v -0.000000 1.270494 0.951057
v -0.000000 0.770494 0.587785
v 0.000000 0.374210 0.000000
v -0.000000 2.292017 0.000000
v -0.509037 2.101034 0.293893
v -0.823639 1.888528 0.475528
v -0.823639 1.270494 0.475528
v -0.509037 0.770494 0.293893
v -0.509037 2.101034 -0.293893
v -0.823639 1.888528 -0.475529
v -0.823639 1.270494 -0.475528
v -0.509037 0.770494 -0.293893
v 0.000000 1.888528 -0.951057
vt 0.737001 0.174677
vt 0.737001 0.391559
vt 0.500000 0.391559
vt 0.500000 0.174677
vt 0.737001 0.608441
vt 0.737001 0.825323
vt 0.500000 0.825323
vt 0.500000 0.608441
vt 0.618501 -0.042204
vt 0.618501 1.042204
vt 0.381499 1.042204
vt 0.262999 0.825323
vt 0.262999 0.391559
vt 0.262999 0.174677
vt 0.262999 0.608441
vt 0.381499 -0.042204
vt 0.144498 1.042204
vt 0.025997 0.825322
vt 0.025997 0.391559
vt 0.025997 0.174678
vt 0.025997 0.608441
vt 0.144498 -0.042204
vt -0.092503 1.042204
vt -0.211004 0.825322
vt -0.211004 0.391559
vt -0.211004 0.174678
vt -0.211004 0.608441
vt -0.092503 -0.042204
vt 1.211004 0.825322
vt 1.092503 1.042204
vt 0.974003 0.825323
vt 1.211004 0.174678
vt 1.211004 0.391559
vt 0.974003 0.391559
vt 0.974003 0.174677
vt 1.211004 0.608441
vt 0.974003 0.608441
vt 1.092503 -0.042204
vt 0.855502 1.042204
vt 0.855502 -0.042204
vn 0.5573 -0.3935 -0.7311
vn 0.4271 0.7096 -0.5603
vn 0.3071 -0.7891 -0.5320
vn 0.6733 -0.0000 -0.7394
vn 0.1756 0.9363 -0.3042
vn 0.3513 0.9363 0.0000
vn 0.9131 -0.3896 -0.1201
vn 0.7027 0.7055 -0.0925
vn 0.6143 -0.7891 0.0000
vn 0.9761 -0.0000 -0.2174
vn 0.1756 0.9363 0.3042
vn 0.4232 -0.5326 0.7330
vn 0.2799 0.8287 0.4848
vn 0.3071 -0.7891 0.5320
vn 0.5000 -0.0000 0.8660
vn -0.1756 0.9363 0.3042
vn -0.4232 -0.5326 0.7330
vn -0.2799 0.8287 0.4848
vn -0.3071 -0.7891 0.5320
vn -0.5000 -0.0000 0.8660
vn -0.3513 0.9363 0.0000
vn -0.8464 -0.5326 -0.0000
vn -0.5597 0.8287 0.0000
vn -0.6143 -0.7891 -0.0000
vn -1.0000 -0.0000 -0.0000
vn -0.1756 0.9363 -0.3042
vn -0.4232 -0.5326 -0.7330
vn -0.2799 0.8287 -0.4848
vn -0.3071 -0.7891 -0.5320
vn -0.5000 -0.0000 -0.8660
usemtl Main
s off
f 3/1/1 2/2/1 6/3/1 7/4/1
f 26/5/2 1/6/2 4/7/2 5/8/2
f 16/9/3 3/1/3 7/4/3
f 2/2/4 26/5/4 5/8/4 6/3/4
f 1/6/5 17/10/5 4/7/5
f 4/7/6 17/11/6 8/12/6
f 7/4/7 6/3/7 10/13/7 11/14/7
f 5/8/8 4/7/8 8/12/8 9/15/8
f 16/16/9 7/4/9 11/14/9
f 6/3/10 5/8/10 9/15/10 10/13/10
f 8/12/11 17/17/11 12/18/11
f 11/14/12 10/13/12 14/19/12 15/20/12
f 9/15/13 8/12/13 12/18/13 13/21/13
f 16/22/14 11/14/14 15/20/14
f 10/13/15 9/15/15 13/21/15 14/19/15
f 12/18/16 17/23/16 18/24/16
f 15/20/17 14/19/17 20/25/17 21/26/17
f 13/21/18 12/18/18 18/24/18 19/27/18
f 16/28/19 15/20/19 21/26/19
f 14/19/20 13/21/20 19/27/20 20/25/20
f 18/29/21 17/30/21 22/31/21
f 21/32/22 20/33/22 24/34/22 25/35/22
f 19/36/23 18/29/23 22/31/23 23/37/23
f 16/38/24 21/32/24 25/35/24
f 20/33/25 19/36/25 23/37/25 24/34/25
f 22/31/26 17/39/26 1/6/26
f 25/35/27 24/34/27 2/2/27 3/1/27
f 23/37/28 22/31/28 1/6/28 26/5/28
f 16/40/29 25/35/29 3/1/29
f 24/34/30 23/37/30 26/5/30 2/2/30
