# Blender v2.91.0 OBJ File: 'Aeg.blend'
# www.blender.org
mtllib Aeg.mtl
o Spine_0_Cylinder
v 0.075415 0.011439 -0.086499
v 0.114489 0.444992 -0.436475
v 0.023304 0.056490 -0.030689
v 0.035379 0.513385 -0.351748
v -0.061012 0.039282 -0.052006
v -0.092624 0.487261 -0.384111
v -0.061012 -0.016405 -0.120991
v -0.092624 0.402722 -0.488838
v 0.023304 -0.033612 -0.142308
v 0.035379 0.376599 -0.521201
vt 1.000000 0.500000
vt 1.000000 1.000000
vt 0.800000 1.000000
vt 0.800000 0.500000
vt 0.600000 1.000000
vt 0.600000 0.500000
vt 0.400000 1.000000
vt 0.400000 0.500000
vt 0.478254 0.324164
vt 0.250000 0.490000
vt 0.021746 0.324164
vt 0.108932 0.055836
vt 0.391068 0.055836
vt 0.200000 1.000000
vt 0.200000 0.500000
vt 0.000000 1.000000
vt 0.000000 0.500000
vt 0.750000 0.490000
vt 0.978254 0.324164
vt 0.891068 0.055836
vt 0.608932 0.055836
vt 0.521746 0.324164
vn 0.8077 0.3245 0.4922
vn -0.3085 0.5523 0.7744
vn -0.9984 -0.0441 0.0356
vn 0.0000 0.7781 -0.6281
vn -0.3085 -0.6405 -0.7033
vn 0.8077 -0.4127 -0.4211
vn -0.0000 -0.7781 0.6281
usemtl None
s off
f 1/1/1 2/2/1 4/3/1 3/4/1
f 3/4/2 4/3/2 6/5/2 5/6/2
f 5/6/3 6/5/3 8/7/3 7/8/3
f 4/9/4 2/10/4 10/11/4 8/12/4 6/13/4
f 7/8/5 8/7/5 10/14/5 9/15/5
f 9/15/6 10/14/6 2/16/6 1/17/6
f 1/18/7 3/19/7 5/20/7 7/21/7 9/22/7
o Spine_1_Cylinder.001
v 0.114489 0.591261 -0.447560
v 0.082725 1.148395 -0.454901
v 0.035379 0.592696 -0.338684
v 0.025563 1.149431 -0.376232
v -0.092624 0.592148 -0.380271
v -0.066926 1.149036 -0.406281
v -0.092624 0.590375 -0.514850
v -0.066926 1.147754 -0.503521
v 0.035379 0.589827 -0.556437
v 0.025563 1.147358 -0.533570
vt 1.000000 0.500000
vt 1.000000 1.000000
vt 0.800000 1.000000
vt 0.800000 0.500000
vt 0.600000 1.000000
vt 0.600000 0.500000
vt 0.400000 1.000000
vt 0.400000 0.500000
vt 0.478254 0.324164
vt 0.250000 0.490000
vt 0.021746 0.324164
vt 0.108932 0.055836
vt 0.391068 0.055836
vt 0.200000 1.000000
vt 0.200000 0.500000
vt 0.000000 1.000000
vt 0.000000 0.500000
vt 0.750000 0.490000
vt 0.978254 0.324164
vt 0.891068 0.055836
vt 0.608932 0.055836
vt 0.521746 0.324164
vn 0.8082 0.0538 0.5865
vn -0.3087 0.0586 0.9494
vn -0.9989 0.0461 -0.0006
vn 0.0000 0.9999 -0.0132
vn -0.3087 0.0336 -0.9506
vn 0.8082 0.0383 -0.5877
vn -0.0000 -0.9999 0.0132
usemtl None
s off
f 11/23/8 12/24/8 14/25/8 13/26/8
f 13/26/9 14/25/9 16/27/9 15/28/9
f 15/28/10 16/27/10 18/29/10 17/30/10
f 14/31/11 12/32/11 20/33/11 18/34/11 16/35/11
f 17/30/12 18/29/12 20/36/12 19/37/12
f 19/37/13 20/36/13 12/38/13 11/39/13
f 11/40/14 13/41/14 15/42/14 17/43/14 19/44/14
o Spine_2_Cone
v 0.062564 1.261454 -0.381741
v 0.068276 1.452316 -0.111162
v -0.022304 1.194194 -0.333220
v 0.006039 1.402992 -0.075579
v -0.104258 1.271132 -0.371232
v -0.054061 1.459413 -0.103455
v -0.019390 1.338391 -0.419754
v 0.008176 1.508737 -0.139038
vt 1.000000 0.500000
vt 1.000000 1.000000
vt 0.750000 1.000000
vt 0.750000 0.500000
vt 0.500000 1.000000
vt 0.500000 0.500000
vt 0.490000 0.250000
vt 0.250000 0.490000
vt 0.010000 0.250000
vt 0.250000 0.010000
vt 0.250000 1.000000
vt 0.250000 0.500000
vt 0.000000 1.000000
vt 0.000000 0.500000
vt 0.750000 0.490000
vt 0.990000 0.250000
vt 0.750000 0.010000
vt 0.510000 0.250000
vn 0.6988 -0.5914 0.4024
vn -0.7064 -0.5099 0.4909
vn 0.0835 0.5115 0.8552
vn -0.6943 0.6435 -0.3223
vn 0.7180 0.5616 -0.4113
vn -0.0835 -0.5115 -0.8552
usemtl None
s off
f 21/45/15 22/46/15 24/47/15 23/48/15
f 23/48/16 24/47/16 26/49/16 25/50/16
f 24/51/17 22/52/17 28/53/17 26/54/17
f 25/50/18 26/49/18 28/55/18 27/56/18
f 27/56/19 28/55/19 22/57/19 21/58/19
f 21/59/20 23/60/20 25/61/20 27/62/20
o RightArm_0_Cone.001
v -0.395882 0.394051 0.003515
v -0.337363 0.645949 -0.083796
v -0.502407 0.422851 -0.021444
v -0.390625 0.660349 -0.096276
v -0.484889 0.394051 -0.129443
v -0.381866 0.645949 -0.150275
v -0.378364 0.365252 -0.104484
v -0.328604 0.631549 -0.137796
v -0.410000 0.248501 0.200179
v -0.440000 0.371499 -0.040179
v -0.460000 0.293012 0.222956
v -0.460000 0.389303 -0.031068
v -0.510000 0.248501 0.200179
v -0.480000 0.371499 -0.040179
v -0.460000 0.203991 0.177401
v -0.460000 0.353694 -0.049290
v -0.460563 0.236964 0.269417
v -0.440000 0.243036 0.220077
v -0.453820 0.262032 0.221039
v -0.476180 0.254776 0.220672
v -0.476180 0.231295 0.219482
v -0.453820 0.224039 0.219114
v -0.410000 0.236964 0.339923
v -0.444549 0.263401 0.271823
v -0.500451 0.253303 0.341410
v -0.500451 0.220626 0.338436
v -0.444549 0.210528 0.267011
v 0.395882 0.394051 0.003515
v 0.337363 0.645949 -0.083796
v 0.502407 0.422851 -0.021444
v 0.390625 0.660349 -0.096276
v 0.484889 0.394051 -0.129443
v 0.381866 0.645949 -0.150275
v 0.378364 0.365252 -0.104484
v 0.328604 0.631549 -0.137796
v 0.410000 0.248501 0.200179
v 0.440000 0.371499 -0.040179
v 0.460000 0.293012 0.222956
v 0.460000 0.389303 -0.031068
v 0.510000 0.248501 0.200179
v 0.480000 0.371499 -0.040179
v 0.460000 0.203991 0.177401
v 0.460000 0.353694 -0.049290
v 0.460563 0.236964 0.269417
v 0.440000 0.243036 0.220077
v 0.453820 0.262032 0.221039
v 0.476180 0.254776 0.220672
v 0.476180 0.231295 0.219482
v 0.453820 0.224039 0.219114
v 0.410000 0.236964 0.339923
v 0.444549 0.263401 0.271823
v 0.500451 0.253303 0.341410
v 0.500451 0.220626 0.338436
v 0.444549 0.210528 0.267011
vt 1.000000 0.500000
vt 1.000000 1.000000
vt 0.750000 1.000000
vt 0.750000 0.500000
vt 0.500000 1.000000
vt 0.500000 0.500000
vt 0.490000 0.250000
vt 0.250000 0.490000
vt 0.010000 0.250000
vt 0.250000 0.010000
vt 0.250000 1.000000
vt 0.250000 0.500000
vt 0.000000 1.000000
vt 0.000000 0.500000
vt 0.750000 0.490000
vt 0.990000 0.250000
vt 0.750000 0.010000
vt 0.510000 0.250000
vt 1.000000 0.500000
vt 1.000000 1.000000
vt 0.750000 1.000000
vt 0.750000 0.500000
vt 0.500000 1.000000
vt 0.500000 0.500000
vt 0.490000 0.250000
vt 0.250000 0.490000
vt 0.010000 0.250000
vt 0.250000 0.010000
vt 0.250000 1.000000
vt 0.250000 0.500000
vt 0.000000 1.000000
vt 0.000000 0.500000
vt 0.750000 0.490000
vt 0.990000 0.250000
vt 0.750000 0.010000
vt 0.510000 0.250000
vt 1.000000 0.500000
vt 1.000000 1.000000
vt 0.800000 1.000000
vt 0.800000 0.500000
vt 0.600000 1.000000
vt 0.600000 0.500000
vt 0.400000 1.000000
vt 0.400000 0.500000
vt 0.478254 0.324164
vt 0.250000 0.490000
vt 0.021747 0.324164
vt 0.108932 0.055836
vt 0.391069 0.055835
vt 0.200000 1.000000
vt 0.200000 0.500000
vt 0.000000 1.000000
vt 0.000000 0.500000
vt 0.750000 0.348587
vt 0.750000 0.490000
vt 0.978254 0.324164
vt 0.814179 0.301958
vt 0.891068 0.055836
vt 0.762204 0.141994
vt 0.608932 0.055836
vt 0.737796 0.141994
vt 0.521747 0.324164
vt 0.685821 0.301958
vt 1.000000 0.500000
vt 0.750000 0.500000
vt 0.750000 1.000000
vt 1.000000 1.000000
vt 0.500000 0.500000
vt 0.500000 1.000000
vt 0.490000 0.250000
vt 0.250000 0.010000
vt 0.010000 0.250000
vt 0.250000 0.490000
vt 0.250000 0.500000
vt 0.250000 1.000000
vt 0.000000 0.500000
vt 0.000000 1.000000
vt 0.750000 0.490000
vt 0.510000 0.250000
vt 0.750000 0.010000
vt 0.990000 0.250000
vt 1.000000 0.500000
vt 0.750000 0.500000
vt 0.750000 1.000000
vt 1.000000 1.000000
vt 0.500000 0.500000
vt 0.500000 1.000000
vt 0.490000 0.250000
vt 0.250000 0.010000
vt 0.010000 0.250000
vt 0.250000 0.490000
vt 0.250000 0.500000
vt 0.250000 1.000000
vt 0.000000 0.500000
vt 0.000000 1.000000
vt 0.750000 0.490000
vt 0.510000 0.250000
vt 0.750000 0.010000
vt 0.990000 0.250000
vt 1.000000 0.500000
vt 0.800000 0.500000
vt 0.800000 1.000000
vt 1.000000 1.000000
vt 0.600000 0.500000
vt 0.600000 1.000000
vt 0.400000 0.500000
vt 0.400000 1.000000
vt 0.478254 0.324164
vt 0.391069 0.055835
vt 0.108932 0.055836
vt 0.021747 0.324164
vt 0.250000 0.490000
vt 0.200000 0.500000
vt 0.200000 1.000000
vt 0.000000 0.500000
vt 0.000000 1.000000
vt 0.750000 0.348587
vt 0.978254 0.324164
vt 0.750000 0.490000
vt 0.814179 0.301958
vt 0.891068 0.055836
vt 0.762204 0.141994
vt 0.608932 0.055836
vt 0.737796 0.141994
vt 0.521747 0.324164
vt 0.685821 0.301958
vn -0.1228 0.3504 0.9285
vn -0.9053 0.3504 -0.2403
vn 0.2992 0.9330 -0.2003
vn 0.1852 -0.1560 -0.9703
vn 0.9676 -0.1560 0.1985
vn -0.2992 -0.9330 0.2003
vn 0.7049 0.6632 0.2514
vn -0.7049 0.6632 0.2514
vn 0.0000 0.4555 -0.8902
vn -0.7049 -0.5919 -0.3909
vn 0.7049 -0.5919 -0.3909
vn 0.0000 -0.4555 0.8902
vn 0.7871 0.5945 -0.1648
vn -0.2331 0.9723 -0.0198
vn -0.9801 0.0147 -0.1977
vn -0.0000 0.0506 -0.9987
vn -0.3556 -0.9199 -0.1653
vn 0.8388 -0.4822 -0.2527
vn -0.7440 0.4021 0.5336
vn 0.7166 -0.4801 0.5060
vn 0.8695 -0.0448 0.4919
vn 0.7471 0.4045 0.5275
vn -0.7135 -0.4787 0.5117
vn 0.1228 0.3504 0.9285
vn 0.9053 0.3504 -0.2403
vn -0.2992 0.9330 -0.2003
vn -0.1852 -0.1560 -0.9703
vn -0.9676 -0.1560 0.1985
vn 0.2992 -0.9330 0.2003
vn -0.7871 0.5945 -0.1648
vn 0.2331 0.9723 -0.0198
vn 0.9801 0.0147 -0.1977
vn 0.3556 -0.9199 -0.1653
vn -0.8388 -0.4822 -0.2527
vn 0.7440 0.4021 0.5336
vn -0.7166 -0.4801 0.5060
vn -0.8695 -0.0448 0.4919
vn -0.7471 0.4045 0.5275
vn 0.7135 -0.4787 0.5117
usemtl Arms
s off
f 29/63/21 30/64/21 32/65/21 31/66/21
f 31/66/22 32/65/22 34/67/22 33/68/22
f 32/69/23 30/70/23 36/71/23 34/72/23
f 33/68/24 34/67/24 36/73/24 35/74/24
f 35/74/25 36/73/25 30/75/25 29/76/25
f 29/77/26 31/78/26 33/79/26 35/80/26
f 37/81/27 38/82/27 40/83/27 39/84/27
f 39/84/28 40/83/28 42/85/28 41/86/28
f 40/87/29 38/88/29 44/89/29 42/90/29
f 41/86/30 42/85/30 44/91/30 43/92/30
f 43/92/31 44/91/31 38/93/31 37/94/31
f 37/95/32 39/96/32 41/97/32 43/98/32
f 51/99/33 46/100/33 47/101/33 52/102/33
f 52/102/34 47/101/34 48/103/34 53/104/34
f 53/104/35 48/103/35 49/105/35 54/106/35
f 47/107/36 46/108/36 50/109/36 49/110/36 48/111/36
f 54/106/37 49/105/37 50/112/37 55/113/37
f 55/113/38 50/112/38 46/114/38 51/115/38
f 45/116/39 51/117/39 52/118/39
f 45/119/40 52/118/40 53/120/40
f 45/121/41 53/120/41 54/122/41
f 45/123/42 54/122/42 55/124/42
f 45/125/43 55/124/43 51/117/43
f 56/126/44 58/127/44 59/128/44 57/129/44
f 58/127/45 60/130/45 61/131/45 59/128/45
f 59/132/46 61/133/46 63/134/46 57/135/46
f 60/130/47 62/136/47 63/137/47 61/131/47
f 62/136/48 56/138/48 57/139/48 63/137/48
f 56/140/49 62/141/49 60/142/49 58/143/49
f 64/144/28 66/145/28 67/146/28 65/147/28
f 66/145/27 68/148/27 69/149/27 67/146/27
f 67/150/29 69/151/29 71/152/29 65/153/29
f 68/148/31 70/154/31 71/155/31 69/149/31
f 70/154/30 64/156/30 65/157/30 71/155/30
f 64/158/32 70/159/32 68/160/32 66/161/32
f 78/162/50 79/163/50 74/164/50 73/165/50
f 79/163/51 80/166/51 75/167/51 74/164/51
f 80/166/52 81/168/52 76/169/52 75/167/52
f 74/170/36 75/171/36 76/172/36 77/173/36 73/174/36
f 81/168/53 82/175/53 77/176/53 76/169/53
f 82/175/54 78/177/54 73/178/54 77/176/54
f 72/179/55 79/180/55 78/181/55
f 72/182/56 80/183/56 79/180/56
f 72/184/57 81/185/57 80/183/57
f 72/186/58 82/187/58 81/185/58
f 72/188/59 78/181/59 82/187/59
o Body_Cone.002
v 0.218224 1.164001 -0.088036
v 0.312965 0.924815 -0.020729
v 0.353094 0.629164 0.062468
v 0.218224 0.389977 0.129776
v 0.067435 1.215440 0.095178
v 0.096712 0.998585 0.242027
v 0.109112 0.712392 0.358915
v 0.067435 0.441415 0.312990
v -0.176547 1.195792 0.025196
v -0.253194 0.970407 0.141663
v -0.285659 0.680602 0.245682
v -0.176547 0.421767 0.243008
v -0.000000 0.336080 0.155485
v -0.000000 1.255363 -0.113746
v -0.176547 1.132211 -0.201269
v -0.253194 0.879222 -0.183121
v -0.285659 0.577725 -0.120746
v -0.176547 0.358186 0.016543
v 0.067435 1.112563 -0.271251
v 0.096712 0.851045 -0.283485
v 0.109112 0.545935 -0.233979
v 0.067435 0.338539 -0.053439
vt 0.600000 0.200000
vt 0.600000 0.400000
vt 0.400000 0.400000
vt 0.400000 0.200000
vt 0.600000 0.600000
vt 0.600000 0.800000
vt 0.400000 0.800000
vt 0.400000 0.600000
vt 0.500000 0.000000
vt 0.500000 1.000000
vt 0.300000 0.000000
vt 0.200000 0.200000
vt 0.200000 0.600000
vt 0.200000 0.400000
vt 0.300000 1.000000
vt 0.200000 0.800000
vt 0.100000 0.000000
vt 0.000000 0.200000
vt 0.000000 0.600000
vt 0.000000 0.400000
vt 0.100000 1.000000
vt 0.000000 0.800000
vt 0.900000 0.000000
vt 1.000000 0.200000
vt 0.800000 0.200000
vt 1.000000 0.400000
vt 1.000000 0.600000
vt 0.800000 0.600000
vt 0.800000 0.400000
vt 1.000000 0.800000
vt 0.900000 1.000000
vt 0.800000 0.800000
vt 0.700000 0.000000
vt 0.700000 1.000000
vn 0.7213 -0.2221 0.6560
vn 0.7509 0.4368 0.4954
vn 0.2637 -0.8502 0.4557
vn 0.7797 0.2654 0.5672
vn 0.3802 0.9233 0.0537
vn -0.1023 -0.8061 0.5829
vn -0.2842 0.3519 0.8918
vn -0.1436 0.9625 0.2303
vn -0.2646 -0.1214 0.9567
vn -0.2745 0.5135 0.8130
vn -0.3162 -0.9134 0.2564
vn -0.9945 0.1012 -0.0284
vn -0.4735 0.8480 -0.2381
vn -0.9156 -0.3871 0.1087
vn -0.9556 0.2838 -0.0797
vn -0.0920 -0.9949 -0.0414
vn -0.2842 -0.1648 -0.9445
vn -0.1436 0.7018 -0.6978
vn -0.2645 -0.6024 -0.7531
vn -0.2746 0.0142 -0.9614
vn 0.2468 -0.9667 0.0683
vn 0.7797 -0.0693 -0.6223
vn 0.3804 0.7603 -0.5265
vn 0.7211 -0.5316 -0.4442
vn 0.7510 0.1145 -0.6503
usemtl Body
s off
f 86/189/60 85/190/60 89/191/60 90/192/60
f 84/193/61 83/194/61 87/195/61 88/196/61
f 95/197/62 86/189/62 90/192/62
f 85/190/63 84/193/63 88/196/63 89/191/63
f 83/194/64 96/198/64 87/195/64
f 95/199/65 90/192/65 94/200/65
f 89/191/66 88/196/66 92/201/66 93/202/66
f 87/195/67 96/203/67 91/204/67
f 90/192/68 89/191/68 93/202/68 94/200/68
f 88/196/69 87/195/69 91/204/69 92/201/69
f 95/205/70 94/200/70 100/206/70
f 93/202/71 92/201/71 98/207/71 99/208/71
f 91/204/72 96/209/72 97/210/72
f 94/200/73 93/202/73 99/208/73 100/206/73
f 92/201/74 91/204/74 97/210/74 98/207/74
f 95/211/75 100/212/75 104/213/75
f 99/214/76 98/215/76 102/216/76 103/217/76
f 97/218/77 96/219/77 101/220/77
f 100/212/78 99/214/78 103/217/78 104/213/78
f 98/215/79 97/218/79 101/220/79 102/216/79
f 95/221/80 104/213/80 86/189/80
f 103/217/81 102/216/81 84/193/81 85/190/81
f 101/220/82 96/222/82 83/194/82
f 104/213/83 103/217/83 85/190/83 86/189/83
f 102/216/84 101/220/84 83/194/84 84/193/84
