# Blender v2.83.1 OBJ File: 'Bedroom.blend'
# www.blender.org
mtllib Bedroom.mtl
o Cube_Cube.001
v -4.500000 0.000000 -3.000000
v -4.500000 6.000000 -3.000000
v 4.500000 0.000000 -3.000000
v 4.500000 6.000000 -3.000000
v -4.500000 0.000000 3.000000
v -4.500000 6.000000 3.000000
v 4.500000 0.000000 3.000000
v 4.500000 6.000000 3.000000
v 1.500000 0.000000 -3.000000
v -1.500000 0.000000 -3.000000
v -4.500000 2.000000 -3.000000
v -4.500000 4.000000 -3.000000
v -1.500000 6.000000 -3.000000
v 1.500000 6.000000 -3.000000
v 4.500000 4.000000 -3.000000
v 4.500000 2.000000 -3.000000
v 4.500000 0.000000 1.000000
v 4.500000 0.000000 -1.000000
v 4.500000 6.000000 -1.000000
v 4.500000 6.000000 1.000000
v 4.500000 4.000000 3.000000
v 4.500000 2.000000 3.000000
v -1.500000 0.000000 3.000000
v 1.500000 0.000000 3.000000
v 1.500000 6.000000 3.000000
v -1.500000 6.000000 3.000000
v -4.500000 4.000000 3.000000
v -4.500000 2.000000 3.000000
v -4.500000 0.000000 -1.000000
v -4.500000 0.000000 1.000000
v -4.500000 6.000000 1.000000
v -4.500000 6.000000 -1.000000
v 1.500000 6.000000 1.000000
v 1.500000 6.000000 -1.000000
v -1.500000 6.000000 1.000000
v -1.500000 6.000000 -1.000000
v 1.500000 0.000000 -1.000000
v 1.500000 0.000000 1.000000
v -1.500000 0.000000 -1.000000
v -1.500000 0.000000 1.000000
v -4.500000 2.000000 1.000000
v -4.500000 4.000000 1.000000
v -4.500000 2.000000 -1.000000
v -4.500000 4.000000 -1.000000
v 1.500000 2.000000 3.000000
v 1.500000 4.000000 3.000000
v -1.500000 2.000000 3.000000
v -1.500000 4.000000 3.000000
v 4.500000 2.000000 -1.000000
v 4.500000 4.000000 -1.000000
v 4.500000 2.000000 1.000000
v 4.500000 4.000000 1.000000
v -1.500000 2.000000 -3.000000
v -1.500000 4.000000 -3.000000
v 1.500000 2.000000 -3.000000
v 1.500000 4.000000 -3.000000
v -1.500000 2.000000 -3.577736
v 1.500000 2.000000 -3.577736
v 1.500000 1.257697 -3.000000
v -1.500000 1.257697 -3.000000
v 1.500000 3.257697 -3.000000
v -1.500000 3.257697 -3.000000
v 1.500000 1.257697 -3.577736
v -1.500000 1.257697 -3.577736
v 1.500000 3.257697 -3.577736
v -1.500000 3.257697 -3.577736
vt 0.666667 0.626107
vt 1.000000 0.626107
vt 1.000000 0.848329
vt 0.666667 0.848329
vt 0.333333 0.611111
vt 0.000000 0.611111
vt 0.000000 0.833333
vt 0.333333 0.833333
vt 1.000000 0.611111
vt 0.666667 0.611111
vt 0.666667 0.833333
vt 1.000000 0.833333
vt 1.000000 0.166667
vt 0.666667 0.166667
vt 0.666667 0.388889
vt 1.000000 0.388889
vt 0.333333 0.166667
vt 0.333333 0.388889
vt 0.000000 0.166667
vt 0.000000 0.388889
vt 0.000000 0.626107
vt 0.333333 0.626107
vt 0.333333 0.848329
vt 0.000000 0.848329
vt 0.000000 0.181663
vt 0.333333 0.181663
vt 0.333333 0.403885
vt 0.000000 0.403885
vt 0.666667 0.181663
vt 1.000000 0.181663
vt 1.000000 0.403885
vt 0.666667 0.403885
vt 0.579205 0.335126
vt 0.579205 0.423673
vt 0.526402 0.423673
vt 0.526402 0.335126
vt 0.632008 0.335126
vt 0.684811 0.335126
vt 0.684811 0.423673
vt 0.632008 0.423673
vt 0.333333 0.543629
vt 0.666667 0.543629
vt 0.473598 0.370328
vt 0.473598 0.581541
vt 0.420795 0.581541
vt 0.420795 0.370328
vt 0.367992 0.370328
vt 0.367992 0.581541
vt 0.315189 0.581541
vt 0.315189 0.370328
vt 0.684811 0.475934
vt 0.632008 0.475934
vt 0.579205 0.475934
vt 0.526402 0.475934
vt 0.666667 0.321407
vt 0.333333 0.321407
vt 0.333333 0.666667
vt 0.000000 0.666667
vt 0.000000 1.000000
vt 0.333333 1.000000
vt 1.000000 0.666667
vt 0.666667 0.666667
vt 0.666667 1.000000
vt 1.000000 1.000000
vt 1.000000 0.000000
vt 0.666667 0.000000
vt 0.666667 0.333333
vt 1.000000 0.333333
vt 0.333333 0.000000
vt 0.333333 0.333333
vt 0.000000 0.000000
vt 0.000000 0.333333
vt 0.666667 0.666667
vt 1.000000 0.666667
vt 1.000000 1.000000
vt 0.666667 1.000000
vt 0.000000 0.666667
vt 0.333333 0.666667
vt 0.333333 1.000000
vt 0.000000 1.000000
vt 0.000000 0.000000
vt 0.333333 0.000000
vt 0.333333 0.333333
vt 0.000000 0.333333
vt 0.666667 0.000000
vt 0.666667 0.333333
vt 1.000000 0.000000
vt 1.000000 0.333333
vt 0.611111 0.333333
vt 0.611111 0.000000
vt 0.833333 0.000000
vt 0.833333 0.333333
vt 0.611111 1.000000
vt 0.611111 0.666667
vt 0.833333 0.666667
vt 0.833333 1.000000
vt 0.166667 1.000000
vt 0.166667 0.666667
vt 0.388889 0.666667
vt 0.388889 1.000000
vt 0.166667 0.333333
vt 0.388889 0.333333
vt 0.166667 0.000000
vt 0.388889 0.000000
vt 0.388889 0.333333
vt 0.388889 0.000000
vt 0.166667 0.000000
vt 0.166667 0.333333
vt 0.388889 1.000000
vt 0.388889 0.666667
vt 0.166667 0.666667
vt 0.166667 1.000000
vt 0.833333 1.000000
vt 0.833333 0.666667
vt 0.611111 0.666667
vt 0.611111 1.000000
vt 0.833333 0.333333
vt 0.611111 0.333333
vt 0.833333 0.000000
vt 0.611111 0.000000
vn 0.0000 0.0000 1.0000
vn 0.0000 0.0000 -1.0000
vn -1.0000 0.0000 0.0000
vn 1.0000 0.0000 0.0000
vn 0.0000 -1.0000 0.0000
vn 0.0000 1.0000 0.0000
usemtl Bedroom_Side_Walls
s off
f 56/1/1 15/2/1 4/3/1 14/4/1
f 48/5/2 27/6/2 6/7/2 26/8/2
f 21/9/2 46/10/2 25/11/2 8/12/2
f 46/10/2 48/5/2 26/8/2 25/11/2
f 7/13/2 24/14/2 45/15/2 22/16/2
f 22/16/2 45/15/2 46/10/2 21/9/2
f 24/14/2 23/17/2 47/18/2 45/15/2
f 45/15/2 47/18/2 48/5/2 46/10/2
f 23/17/2 5/19/2 28/20/2 47/18/2
f 47/18/2 28/20/2 27/6/2 48/5/2
f 12/21/1 54/22/1 13/23/1 2/24/1
f 54/22/1 56/1/1 14/4/1 13/23/1
f 1/25/1 10/26/1 53/27/1 11/28/1
f 11/28/1 53/27/1 54/22/1 12/21/1
f 9/29/1 3/30/1 16/31/1 55/32/1
f 55/32/1 16/31/1 15/2/1 56/1/1
f 65/33/3 58/34/3 55/35/3 61/36/3
f 66/37/4 62/38/4 53/39/4 57/40/4
f 56/1/1 54/22/1 62/41/1 61/42/1
f 61/43/5 62/44/5 66/45/5 65/46/5
f 60/47/6 59/48/6 63/49/6 64/50/6
f 57/40/4 53/39/4 60/51/4 64/52/4
f 55/35/3 58/34/3 63/53/3 59/54/3
f 10/26/1 9/29/1 59/55/1 60/56/1
usemtl Bedroom_Back_Wall
f 44/57/4 12/58/4 2/59/4 32/60/4
f 27/61/4 42/62/4 31/63/4 6/64/4
f 42/62/4 44/57/4 32/60/4 31/63/4
f 5/65/4 30/66/4 41/67/4 28/68/4
f 28/68/4 41/67/4 42/62/4 27/61/4
f 30/66/4 29/69/4 43/70/4 41/67/4
f 41/67/4 43/70/4 44/57/4 42/62/4
f 29/69/4 1/71/4 11/72/4 43/70/4
f 43/70/4 11/72/4 12/58/4 44/57/4
usemtl Bedroom_Front_Wall
f 52/73/3 21/74/3 8/75/3 20/76/3
f 15/77/3 50/78/3 19/79/3 4/80/3
f 50/78/3 52/73/3 20/76/3 19/79/3
f 3/81/3 18/82/3 49/83/3 16/84/3
f 16/84/3 49/83/3 50/78/3 15/77/3
f 18/82/3 17/85/3 51/86/3 49/83/3
f 49/83/3 51/86/3 52/73/3 50/78/3
f 17/85/3 7/87/3 22/88/3 51/86/3
f 51/86/3 22/88/3 21/74/3 52/73/3
usemtl Bedroom_Floor
f 40/89/6 30/90/6 5/91/6 23/92/6
f 17/93/6 38/94/6 24/95/6 7/96/6
f 38/94/6 40/89/6 23/92/6 24/95/6
f 3/97/6 9/98/6 37/99/6 18/100/6
f 18/100/6 37/99/6 38/94/6 17/93/6
f 9/98/6 10/101/6 39/102/6 37/99/6
f 37/99/6 39/102/6 40/89/6 38/94/6
f 10/101/6 1/103/6 29/104/6 39/102/6
f 39/102/6 29/104/6 30/90/6 40/89/6
usemtl Bedroom_Ceiling
f 36/105/5 32/106/5 2/107/5 13/108/5
f 19/109/5 34/110/5 14/111/5 4/112/5
f 34/110/5 36/105/5 13/108/5 14/111/5
f 8/113/5 25/114/5 33/115/5 20/116/5
f 20/116/5 33/115/5 34/110/5 19/109/5
f 25/114/5 26/117/5 35/118/5 33/115/5
f 33/115/5 35/118/5 36/105/5 34/110/5
f 26/117/5 6/119/5 31/120/5 35/118/5
f 35/118/5 31/120/5 32/106/5 36/105/5
