# Blender v2.83.1 OBJ File: 'Bush.blend'
# www.blender.org
mtllib Bush.mtl
o Sphere
v 0.000000 0.804509 -0.293893
v 0.000000 0.554509 -0.475528
v 0.000000 0.245491 -0.475528
v 0.000000 -0.004509 -0.293893
v 0.279509 0.804509 -0.090818
v 0.452254 0.554509 -0.146946
v 0.452254 0.245491 -0.146946
v 0.279509 -0.004509 -0.090818
v 0.172746 0.804509 0.237764
v 0.279509 0.554509 0.384711
v 0.279509 0.245491 0.384711
v 0.172746 -0.004509 0.237764
v 0.000000 0.000000 0.000000
v -0.000000 0.900000 0.000000
v -0.172746 0.804509 0.237764
v -0.279509 0.554509 0.384711
v -0.279509 0.245491 0.384711
v -0.172746 -0.004509 0.237764
v -0.279509 0.804509 -0.090818
v -0.452254 0.554509 -0.146946
v -0.452254 0.245491 -0.146946
v -0.279509 -0.004509 -0.090818
vt 0.600000 0.200000
vt 0.600000 0.400000
vt 0.400000 0.400000
vt 0.400000 0.200000
vt 0.600000 0.600000
vt 0.600000 0.800000
vt 0.400000 0.800000
vt 0.400000 0.600000
vt 0.500000 0.000000
vt 0.500000 1.000000
vt 0.300000 1.000000
vt 0.200000 0.800000
vt 0.200000 0.400000
vt 0.200000 0.200000
vt 0.200000 0.600000
vt 0.300000 0.000000
vt 0.100000 1.000000
vt 0.000000 0.800000
vt 0.000000 0.400000
vt 0.000000 0.200000
vt 0.000000 0.600000
vt 0.100000 0.000000
vt 1.000000 0.800000
vt 0.900000 1.000000
vt 0.800000 0.800000
vt 1.000000 0.200000
vt 1.000000 0.400000
vt 0.800000 0.400000
vt 0.800000 0.200000
vt 1.000000 0.600000
vt 0.800000 0.600000
vt 0.900000 0.000000
vt 0.700000 1.000000
vt 0.700000 0.000000
vn 0.5067 -0.5067 -0.6975
vn 0.5067 0.5067 -0.6975
vn -0.0111 -0.9998 0.0153
vn 0.5878 -0.0000 -0.8090
vn 0.2191 0.9280 -0.3015
vn 0.3544 0.9280 0.1152
vn 0.8199 -0.5067 0.2664
vn 0.8199 0.5067 0.2664
vn -0.0180 -0.9998 -0.0059
vn 0.9511 0.0000 0.3090
vn 0.0000 0.9280 0.3727
vn -0.0000 -0.5067 0.8621
vn 0.0000 0.5067 0.8621
vn 0.0000 -0.9998 -0.0190
vn 0.0000 0.0000 1.0000
vn -0.3544 0.9280 0.1152
vn -0.8199 -0.5067 0.2664
vn -0.8199 0.5067 0.2664
vn 0.0180 -0.9998 -0.0059
vn -0.9511 0.0000 0.3090
vn -0.2191 0.9280 -0.3015
vn -0.5067 -0.5067 -0.6975
vn -0.5067 0.5067 -0.6975
vn 0.0111 -0.9998 0.0153
vn -0.5878 -0.0000 -0.8090
usemtl None
s off
f 4/1/1 3/2/1 7/3/1 8/4/1
f 2/5/2 1/6/2 5/7/2 6/8/2
f 13/9/3 4/1/3 8/4/3
f 3/2/4 2/5/4 6/8/4 7/3/4
f 1/6/5 14/10/5 5/7/5
f 5/7/6 14/11/6 9/12/6
f 8/4/7 7/3/7 11/13/7 12/14/7
f 6/8/8 5/7/8 9/12/8 10/15/8
f 13/16/9 8/4/9 12/14/9
f 7/3/10 6/8/10 10/15/10 11/13/10
f 9/12/11 14/17/11 15/18/11
f 12/14/12 11/13/12 17/19/12 18/20/12
f 10/15/13 9/12/13 15/18/13 16/21/13
f 13/22/14 12/14/14 18/20/14
f 11/13/15 10/15/15 16/21/15 17/19/15
f 15/23/16 14/24/16 19/25/16
f 18/26/17 17/27/17 21/28/17 22/29/17
f 16/30/18 15/23/18 19/25/18 20/31/18
f 13/32/19 18/26/19 22/29/19
f 17/27/20 16/30/20 20/31/20 21/28/20
f 19/25/21 14/33/21 1/6/21
f 22/29/22 21/28/22 3/2/22 4/1/22
f 20/31/23 19/25/23 1/6/23 2/5/23
f 13/34/24 22/29/24 4/1/24
f 21/28/25 20/31/25 2/5/25 3/2/25
