# Blender v2.83.1 OBJ File: 'eyeball.blend'
# www.blender.org
mtllib eyeball.mtl
o Sphere_Sphere.001
v 0.184512 0.000159 0.454270
v 0.305705 -0.000000 0.371964
v 0.385465 -0.000000 0.250108
v 0.426916 -0.000000 0.128714
v 0.467577 0.000000 -0.051964
v 0.417627 0.000000 -0.250000
v 0.129415 0.000021 -0.537053
v 0.067541 -0.067158 0.501142
v 0.130462 -0.130393 0.453710
v 0.220829 -0.220828 0.371964
v 0.288106 -0.288106 0.250108
v 0.323905 -0.323905 0.128714
v 0.343152 -0.343254 0.053908
v 0.350804 -0.385855 -0.149313
v 0.306186 -0.306186 -0.250000
v 0.250000 -0.245604 -0.394619
v 0.176777 -0.176777 -0.468678
v 0.091507 -0.091506 -0.536920
v 0.000003 -0.095176 0.500865
v 0.000001 -0.184435 0.453690
v 0.000000 -0.312299 0.371964
v 0.000000 -0.407444 0.250108
v 0.000000 -0.474121 0.101694
v 0.000075 -0.549181 0.035161
v -0.000105 -0.515801 -0.140549
v 0.000000 -0.448398 -0.258792
v 0.000000 -0.349157 -0.394619
v 0.000000 -0.250000 -0.468678
v 0.000000 -0.129409 -0.536920
v -0.067533 -0.067159 0.501134
v -0.130460 -0.130393 0.453712
v -0.220828 -0.220828 0.371964
v -0.288106 -0.288106 0.250108
v -0.323905 -0.323905 0.128714
v -0.343152 -0.343254 0.053908
v -0.351304 -0.370119 -0.140156
v -0.306186 -0.321572 -0.258792
v -0.250000 -0.245604 -0.394619
v -0.176776 -0.176777 -0.468678
v -0.091506 -0.091506 -0.536920
v -0.095507 0.000497 0.501889
v -0.184508 0.000157 0.454254
v -0.301309 -0.000000 0.371964
v -0.389860 -0.000000 0.250108
v -0.428373 -0.000000 0.128714
v -0.454192 -0.000000 0.054220
v -0.465379 -0.000000 -0.037073
v -0.415429 -0.000000 -0.250000
v -0.353553 0.000000 -0.374838
v -0.250000 0.000000 -0.468678
v -0.129414 0.000023 -0.537064
v -0.067533 0.068190 0.502871
v -0.130464 0.130792 0.455307
v -0.220828 0.220828 0.371964
v -0.288106 0.288106 0.250108
v -0.323905 0.323905 0.128714
v -0.343133 0.343271 0.053926
v -0.351210 0.356865 -0.147089
v -0.306186 0.301790 -0.260990
v -0.250000 0.252198 -0.383629
v -0.176776 0.176777 -0.468678
v -0.091600 0.092367 -0.542127
v 0.000011 0.096260 0.503464
v 0.000006 0.184897 0.455720
v 0.000000 0.312299 0.371964
v 0.000000 0.407444 0.250108
v 0.000000 0.477434 0.102079
v -0.000048 0.544450 0.029588
v 0.000010 0.502454 -0.147570
v 0.000000 0.428617 -0.260990
v 0.000000 0.355751 -0.383629
v 0.000000 0.250000 -0.468678
v 0.000024 0.131352 -0.548670
v 0.067551 0.068192 0.502887
v 0.130475 0.130793 0.455319
v 0.220829 0.220828 0.371964
v 0.288106 0.288106 0.250108
v 0.323905 0.323905 0.128714
v 0.343134 0.343271 0.053927
v 0.351259 0.352394 -0.158118
v 0.306186 0.306186 -0.250000
v 0.250000 0.252198 -0.383629
v 0.176777 0.176777 -0.468678
v 0.091626 0.092396 -0.542357
v 0.000008 0.001400 -0.590455
v 0.000009 0.000787 0.518417
v 0.095519 0.000498 0.501901
v 0.457712 0.000000 0.026770
v 0.353553 0.000000 -0.374837
v 0.250000 0.000000 -0.468678
v -0.373524 0.389427 0.001407
v 0.373372 0.389386 0.008190
v -0.374186 -0.398230 0.003676
v 0.379643 -0.391355 0.000968
vt 0.611473 0.386658
vt 0.583424 0.414442
vt 0.499169 0.377403
vt 0.545234 0.451742
vt 0.531542 0.465545
vt 0.497988 0.453190
vt 0.497984 0.433441
vt 0.562094 0.435214
vt 0.498394 0.409047
vt 0.451747 0.454772
vt 0.435219 0.437912
vt 0.465550 0.468463
vt 0.453195 0.502018
vt 0.433446 0.502021
vt 0.409052 0.501611
vt 0.377408 0.500837
vt 0.437917 0.564787
vt 0.416586 0.585558
vt 0.388537 0.613343
vt 0.468468 0.534455
vt 0.454777 0.548258
vt 0.502026 0.566559
vt 0.501616 0.590953
vt 0.500842 0.622597
vt 0.502023 0.546810
vt 0.534460 0.531537
vt 0.548263 0.545228
vt 0.564791 0.562088
vt 0.590958 0.498389
vt 0.622602 0.499163
vt 0.546815 0.497983
vt 0.566564 0.497979
vt 0.518686 0.478702
vt 0.509000 0.489411
vt 0.498879 0.486150
vt 0.498165 0.471705
vt 0.489416 0.491006
vt 0.478707 0.481319
vt 0.486156 0.501127
vt 0.471710 0.501841
vt 0.481324 0.521299
vt 0.491011 0.510590
vt 0.501132 0.513850
vt 0.501846 0.528295
vt 0.510595 0.508995
vt 0.521304 0.518682
vt 0.528301 0.498160
vt 0.513855 0.498874
vt 0.500005 0.500000
vt 0.780386 0.211018
vt 0.707396 0.285748
vt 0.498775 0.123422
vt 0.649147 0.035561
vt 0.878581 0.113777
vt 0.825669 0.000104
vt 0.650565 0.346256
vt 0.500118 0.333446
vt 0.500468 0.265439
vt 0.999900 0.003257
vt 0.003250 0.000100
vt 0.176099 0.014703
vt 0.113775 0.121422
vt 0.346260 0.349440
vt 0.285751 0.292608
vt 0.344041 0.051040
vt 0.211019 0.219618
vt 0.414447 0.416581
vt 0.499643 0.355424
vt 0.386662 0.388532
vt 0.355429 0.500363
vt 0.035561 0.350862
vt 0.000100 0.174337
vt 0.333451 0.499888
vt 0.265444 0.499539
vt 0.123427 0.501234
vt 0.051050 0.655967
vt 0.292616 0.714254
vt 0.219627 0.788985
vt 0.014717 0.823907
vt 0.121434 0.886228
vt 0.349446 0.653745
vt 0.000117 0.996751
vt 0.499893 0.666554
vt 0.499544 0.734560
vt 0.174348 0.999900
vt 0.501238 0.876575
vt 0.350869 0.964439
vt 0.823907 0.985287
vt 0.655970 0.948953
vt 0.788987 0.780379
vt 0.886229 0.878572
vt 0.613347 0.611468
vt 0.653749 0.650559
vt 0.996749 0.999889
vt 0.714257 0.707389
vt 0.734565 0.500463
vt 0.876580 0.498770
vt 0.964442 0.649139
vt 0.585563 0.583419
vt 0.644580 0.499638
vt 0.999900 0.825660
vt 0.666558 0.500113
vt 0.985296 0.176100
vt 0.948960 0.344038
vt 0.500368 0.644575
vn 0.9447 -0.3059 0.1184
vn 0.7854 -0.2812 0.5515
vn 0.8975 -0.2938 0.3289
vn 0.9133 -0.2861 0.2899
vn 0.3602 -0.8552 0.3726
vn 0.3762 -0.8690 0.3215
vn 0.3104 -0.7493 0.5850
vn -0.3104 -0.7493 0.5850
vn -0.3602 -0.8552 0.3726
vn -0.3762 -0.8690 0.3215
vn -0.9044 -0.2923 0.3109
vn -0.9450 -0.3058 0.1158
vn -0.7731 -0.2768 0.5707
vn -0.8980 -0.3026 0.3195
vn -0.8980 0.3026 0.3195
vn -0.9044 0.2923 0.3108
vn -0.9450 0.3058 0.1158
vn -0.7731 0.2768 0.5707
vn -0.3104 0.7493 0.5850
vn -0.3624 0.8501 0.3820
vn -0.3836 0.8653 0.3227
vn 0.3836 0.8653 0.3227
vn 0.3104 0.7493 0.5850
vn 0.3624 0.8501 0.3820
vn 0.8975 0.2938 0.3289
vn 0.9133 0.2861 0.2899
vn 0.9447 0.3060 0.1184
vn 0.7854 0.2812 0.5515
vn 0.4599 -0.1961 0.8661
vn 0.5395 -0.2146 0.8142
vn 0.1894 -0.4600 0.8675
vn 0.2177 -0.5257 0.8223
vn -0.1894 -0.4600 0.8675
vn -0.2177 -0.5257 0.8223
vn -0.5483 -0.2112 0.8091
vn -0.4599 -0.1960 0.8661
vn -0.4666 0.1841 0.8651
vn -0.5536 0.2095 0.8060
vn -0.1965 0.4629 0.8643
vn -0.2224 0.5343 0.8155
vn 0.2224 0.5344 0.8155
vn 0.1964 0.4630 0.8643
vn 0.4667 0.1841 0.8651
vn 0.5447 0.2129 0.8111
vn 0.1696 -0.0812 0.9822
vn 0.0704 -0.1795 0.9812
vn -0.0705 -0.1795 0.9812
vn -0.1697 -0.0811 0.9821
vn -0.1704 0.0562 0.9838
vn -0.0728 0.1543 0.9853
vn 0.0726 0.1543 0.9854
vn 0.1703 0.0560 0.9838
vn 0.6232 -0.2258 -0.7487
vn 0.4828 -0.2004 -0.8525
vn 0.9025 -0.2481 -0.3519
vn 0.3753 -0.1568 -0.9135
vn 0.8398 -0.3113 -0.4448
vn 0.1550 -0.3742 -0.9143
vn 0.3531 -0.7807 -0.5156
vn 0.2406 -0.5808 -0.7777
vn 0.3248 -0.6071 0.7252
vn 0.1999 -0.4826 -0.8527
vn 0.3137 -0.7574 -0.5726
vn -0.3145 -0.5917 0.7423
vn -0.1999 -0.4826 -0.8527
vn -0.3392 -0.8177 -0.4650
vn -0.1550 -0.3742 -0.9143
vn -0.3172 -0.7657 -0.5595
vn -0.2406 -0.5808 -0.7777
vn -0.6232 -0.2258 -0.7487
vn -0.4828 -0.2004 -0.8525
vn -0.9208 -0.2487 -0.3004
vn -0.3752 -0.1568 -0.9136
vn -0.8369 -0.2906 -0.4638
vn -0.9165 0.2541 -0.3091
vn -0.3802 0.1053 -0.9189
vn -0.8347 0.3042 -0.4591
vn -0.6353 0.2468 -0.7318
vn -0.5026 0.1915 -0.8430
vn -0.2375 0.5202 -0.8203
vn -0.3286 0.7921 -0.5143
vn -0.1944 0.3003 -0.9338
vn -0.3355 0.8099 -0.4812
vn -0.2513 0.6066 -0.7543
vn 0.3391 0.8114 -0.4760
vn 0.2513 0.6066 -0.7543
vn 0.3259 0.6401 0.6957
vn 0.2371 0.5211 -0.8199
vn 0.3251 0.7835 -0.5295
vn 0.1921 0.3004 -0.9343
vn 0.9050 0.2585 -0.3378
vn 0.3804 0.1028 -0.9191
vn 0.8340 0.3140 -0.4536
vn 0.6353 0.2468 -0.7318
vn 0.5035 0.1910 -0.8426
vn -0.7827 -0.1167 0.6113
vn -0.8032 0.1321 0.5809
vn 0.7838 0.0948 0.6138
vn 0.7793 -0.0912 0.6200
vn 0.3689 0.9004 -0.2307
vn -0.9509 -0.2380 -0.1978
vn 0.9518 -0.2397 -0.1914
vn -0.3366 0.6558 0.6757
vn -0.3652 0.9017 -0.2315
vn -0.9499 0.2434 -0.1961
vn 0.9486 0.2578 -0.1835
vn -0.3634 -0.9097 -0.2009
vn 0.3556 -0.9238 -0.1418
usemtl eyeOuter
s off
f 5/1/1 88/2/1 13/3/1
f 3/4/2 2/5/2 10/6/2 11/7/2
f 4/8/3 3/4/3 11/7/3 12/9/3
f 88/2/4 4/8/4 12/9/4 13/3/4
f 12/9/5 11/7/5 22/10/5 23/11/5
f 13/3/6 12/9/6 23/11/6
f 11/7/7 10/6/7 21/12/7 22/10/7
f 22/10/8 21/12/8 32/13/8 33/14/8
f 23/11/9 22/10/9 33/14/9 34/15/9
f 23/11/10 34/15/10 35/16/10
f 35/16/11 34/15/11 45/17/11 46/18/11
f 35/16/12 46/18/12 47/19/12
f 33/14/13 32/13/13 43/20/13 44/21/13
f 34/15/14 33/14/14 44/21/14 45/17/14
f 45/17/15 44/21/15 55/22/15 56/23/15
f 46/18/16 45/17/16 56/23/16 57/24/16
f 47/19/17 46/18/17 57/24/17
f 44/21/18 43/20/18 54/25/18 55/22/18
f 55/22/19 54/25/19 65/26/19 66/27/19
f 56/23/20 55/22/20 66/27/20 67/28/20
f 57/24/21 56/23/21 67/28/21
f 67/28/22 78/29/22 79/30/22
f 66/27/23 65/26/23 76/31/23 77/32/23
f 67/28/24 66/27/24 77/32/24 78/29/24
f 78/29/25 77/32/25 3/4/25 4/8/25
f 79/30/26 78/29/26 4/8/26 88/2/26
f 79/30/27 88/2/27 5/1/27
f 77/32/28 76/31/28 2/5/28 3/4/28
usemtl eyeInner
f 1/33/29 87/34/29 8/35/29 9/36/29
f 2/5/30 1/33/30 9/36/30 10/6/30
f 9/36/31 8/35/31 19/37/31 20/38/31
f 10/6/32 9/36/32 20/38/32 21/12/32
f 20/38/33 19/37/33 30/39/33 31/40/33
f 21/12/34 20/38/34 31/40/34 32/13/34
f 32/13/35 31/40/35 42/41/35 43/20/35
f 31/40/36 30/39/36 41/42/36 42/41/36
f 42/41/37 41/42/37 52/43/37 53/44/37
f 43/20/38 42/41/38 53/44/38 54/25/38
f 53/44/39 52/43/39 63/45/39 64/46/39
f 54/25/40 53/44/40 64/46/40 65/26/40
f 65/26/41 64/46/41 75/47/41 76/31/41
f 64/46/42 63/45/42 74/48/42 75/47/42
f 75/47/43 74/48/43 87/34/43 1/33/43
f 76/31/44 75/47/44 1/33/44 2/5/44
usemtl eyePupil
f 87/34/45 86/49/45 8/35/45
f 8/35/46 86/49/46 19/37/46
f 19/37/47 86/49/47 30/39/47
f 30/39/48 86/49/48 41/42/48
f 41/42/49 86/49/49 52/43/49
f 52/43/50 86/49/50 63/45/50
f 63/45/51 86/49/51 74/48/51
f 74/48/52 86/49/52 87/34/52
usemtl eyeSkin
f 90/50/53 89/51/53 16/52/53 17/53/53
f 7/54/54 90/50/54 17/53/54 18/55/54
f 6/56/55 5/1/55 14/57/55 15/58/55
f 85/59/56 7/54/56 18/55/56
f 89/51/57 6/56/57 15/58/57 16/52/57
f 85/60/58 18/61/58 29/62/58
f 16/52/59 15/58/59 26/63/59 27/64/59
f 17/65/60 16/52/60 27/64/60 28/66/60
f 24/67/61 94/68/61 13/3/61 23/11/61
f 18/61/62 17/65/62 28/66/62 29/62/62
f 15/58/63 14/57/63 25/69/63 26/63/63
f 24/67/64 23/11/64 35/16/64 93/70/64
f 29/62/65 28/66/65 39/71/65 40/72/65
f 26/63/66 25/69/66 36/73/66 37/74/66
f 85/60/67 29/62/67 40/72/67
f 27/64/68 26/63/68 37/74/68 38/75/68
f 28/66/69 27/64/69 38/75/69 39/71/69
f 39/76/70 38/75/70 49/77/70 50/78/70
f 40/79/71 39/76/71 50/78/71 51/80/71
f 37/74/72 36/73/72 47/19/72 48/81/72
f 85/82/73 40/79/73 51/80/73
f 38/75/74 37/74/74 48/81/74 49/77/74
f 48/81/75 47/19/75 58/83/75 59/84/75
f 85/82/76 51/80/76 62/85/76
f 49/77/77 48/81/77 59/84/77 60/86/77
f 50/78/78 49/77/78 60/86/78 61/87/78
f 51/80/79 50/78/79 61/87/79 62/85/79
f 62/88/80 61/89/80 72/90/80 73/91/80
f 59/84/81 58/83/81 69/92/81 70/93/81
f 85/94/82 62/88/82 73/91/82
f 60/86/83 59/84/83 70/93/83 71/95/83
f 61/89/84 60/86/84 71/95/84 72/90/84
f 71/95/85 70/93/85 81/96/85 82/97/85
f 72/90/86 71/95/86 82/97/86 83/98/86
f 68/99/87 67/28/87 79/30/87 92/100/87
f 73/91/88 72/90/88 83/98/88 84/101/88
f 70/93/89 69/92/89 80/102/89 81/96/89
f 85/94/90 73/91/90 84/101/90
f 81/96/91 80/102/91 5/1/91 6/56/91
f 85/59/92 84/103/92 7/54/92
f 82/97/93 81/96/93 6/56/93 89/51/93
f 83/104/94 82/97/94 89/51/94 90/50/94
f 84/103/95 83/104/95 90/50/95 7/54/95
f 93/70/96 35/16/96 47/19/96
f 47/19/97 57/24/97 91/105/97
f 92/100/98 79/30/98 5/1/98
f 5/1/99 13/3/99 94/68/99
f 69/92/100 68/99/100 92/100/100 80/102/100
f 36/73/101 93/70/101 47/19/101
f 14/57/102 5/1/102 94/68/102
f 68/99/103 91/105/103 57/24/103 67/28/103
f 58/83/104 91/105/104 68/99/104 69/92/104
f 58/83/105 47/19/105 91/105/105
f 80/102/106 92/100/106 5/1/106
f 25/69/107 24/67/107 93/70/107 36/73/107
f 14/57/108 94/68/108 24/67/108 25/69/108
