# Blender v2.83.1 OBJ File: 'Lamp.blend'
# www.blender.org
mtllib Lamp.mtl
o Cylinder
v 0.090000 -1.331175 -0.145837
v 0.090000 0.538845 0.529999
v -0.045000 -1.331175 -0.067895
v -0.045000 0.493587 0.466543
v -0.045000 -1.331175 -0.223779
v -0.045000 0.584103 0.593456
v 0.090000 0.276993 -0.142266
v 0.090000 0.500601 -0.073540
v 0.090000 0.686546 0.045884
v 0.090000 0.794408 0.225951
v 0.090000 0.704302 0.411992
v -0.045000 0.659044 0.348536
v -0.045000 0.716504 0.223524
v -0.045000 0.633363 0.102863
v -0.045000 0.477703 0.000963
v -0.045000 0.254095 -0.067763
v -0.045000 0.749560 0.475448
v -0.045000 0.872313 0.228377
v -0.045000 0.739728 -0.011096
v -0.045000 0.523500 -0.148043
v -0.045000 0.299891 -0.216768
v 0.210000 0.217670 0.607906
v -0.105000 0.258581 0.785110
v -0.105000 0.176759 0.430701
v -0.084806 0.106054 0.582751
v -0.002813 0.162375 0.515630
v 0.002813 0.053350 0.645561
v 0.084806 0.109671 0.578441
v -0.084806 0.197980 0.659885
v -0.002813 0.254300 0.592765
v 0.002813 0.145276 0.722696
v 0.084806 0.201596 0.655575
vt 1.000000 0.983586
vt 1.000000 1.000000
vt 0.666667 1.000000
vt 0.666667 0.983586
vt 0.333333 1.000000
vt 0.333333 0.983586
vt 0.457846 0.130000
vt 0.250000 0.490000
vt 0.042154 0.130000
vt -0.000000 1.000000
vt -0.000000 0.983586
vt 0.750000 0.490000
vt 0.957846 0.130000
vt 0.542154 0.130000
vt 0.333333 0.500000
vt 0.333333 0.650252
vt -0.000000 0.650253
vt -0.000000 0.500000
vt 0.333333 0.733586
vt -0.000000 0.733586
vt 0.333333 0.816919
vt -0.000000 0.816919
vt 0.333333 0.900253
vt -0.000000 0.900253
vt 0.666667 0.500000
vt 0.666667 0.650252
vt 0.666667 0.733586
vt 0.666667 0.816919
vt 0.666667 0.900253
vt 1.000000 0.500000
vt 1.000000 0.650253
vt 1.000000 0.733586
vt 1.000000 0.816919
vt 1.000000 0.900253
vt 1.000000 0.500000
vt 0.666667 1.000000
vt 0.666667 0.500000
vt 0.333333 1.000000
vt 0.333333 0.500000
vt -0.000000 0.500000
vt 0.750000 0.490000
vt 0.957846 0.130000
vt 0.542154 0.130000
vt 0.375000 0.000000
vt 0.625000 0.000000
vt 0.625000 0.250000
vt 0.375000 0.250000
vt 0.625000 0.500000
vt 0.375000 0.500000
vt 0.625000 0.750000
vt 0.375000 0.750000
vt 0.625000 1.000000
vt 0.375000 1.000000
vt 0.125000 0.500000
vt 0.125000 0.750000
vt 0.875000 0.500000
vt 0.875000 0.750000
vn 0.5000 -0.5029 -0.7051
vn -1.0000 -0.0000 0.0000
vn -0.0000 -0.8141 0.5807
vn 0.5000 0.5029 0.7051
vn 0.0000 -1.0000 -0.0000
vn 0.4918 0.0028 -0.8707
vn 0.5000 0.2544 -0.8278
vn 0.4900 0.4686 -0.7351
vn 0.4625 0.7692 -0.4409
vn 0.4593 0.7972 0.3918
vn 0.4917 -0.0010 0.8708
vn 0.5000 -0.2544 0.8278
vn 0.4899 -0.4740 0.7317
vn 0.4601 -0.7495 0.4760
vn 0.4591 -0.8027 -0.3808
vn 0.4921 0.3734 0.7864
vn -0.9837 0.1691 -0.0605
vn 0.4736 -0.0135 -0.8807
vn 0.0000 -0.9744 0.2250
vn 0.0000 -0.7660 -0.6428
vn 0.7302 -0.4392 0.5234
vn -0.0000 0.7660 0.6428
vn -0.7302 0.4392 -0.5234
vn -0.6833 -0.4693 0.5593
vn 0.6833 0.4693 -0.5593
usemtl Main
s off
f 11/1/1 2/2/1 4/3/1 12/4/1
f 12/4/2 4/3/2 6/5/2 17/6/2
f 4/7/3 2/8/3 6/9/3
f 17/6/4 6/5/4 2/10/4 11/11/4
f 1/12/5 3/13/5 5/14/5
f 5/15/6 21/16/6 7/17/6 1/18/6
f 21/16/7 20/19/7 8/20/7 7/17/7
f 20/19/8 19/21/8 9/22/8 8/20/8
f 19/21/9 18/23/9 10/24/9 9/22/9
f 18/23/10 17/6/10 11/11/10 10/24/10
f 3/25/2 16/26/2 21/16/2 5/15/2
f 16/26/2 15/27/2 20/19/2 21/16/2
f 15/27/2 14/28/2 19/21/2 20/19/2
f 14/28/2 13/29/2 18/23/2 19/21/2
f 13/29/2 12/4/2 17/6/2 18/23/2
f 1/30/11 7/31/11 16/26/11 3/25/11
f 7/31/12 8/32/12 15/27/12 16/26/12
f 8/32/13 9/33/13 14/28/13 15/27/13
f 9/33/14 10/34/14 13/29/14 14/28/14
f 10/34/15 11/1/15 12/4/15 13/29/15
f 22/35/16 2/2/16 6/36/16 23/37/16
f 23/37/17 6/36/17 4/38/17 24/39/17
f 24/39/18 4/38/18 2/10/18 22/40/18
f 22/41/19 23/42/19 24/43/19
usemtl Bulb
f 25/44/20 26/45/20 28/46/20 27/47/20
f 27/47/21 28/46/21 32/48/21 31/49/21
f 31/49/22 32/48/22 30/50/22 29/51/22
f 29/51/23 30/50/23 26/52/23 25/53/23
f 27/54/24 31/49/24 29/51/24 25/55/24
f 32/48/25 28/56/25 26/57/25 30/50/25
