# Blender v2.83.1 OBJ File: 'MaskMan.blend'
# www.blender.org
mtllib MaskMan.mtl
o Cone
v -0.000000 1.460160 0.188157
v 0.000000 -0.246083 -0.000000
v -0.105995 1.003261 0.158636
v 0.105994 1.003261 0.158636
v -0.000000 0.984541 -0.627961
v -0.474159 0.473989 -0.067417
v -0.379966 1.183023 0.028298
v -0.468788 0.702130 -0.060958
v -0.406039 0.694704 -0.061300
v -0.437657 0.709840 -0.123895
v 0.474159 0.473989 -0.067417
v 0.379966 1.183023 0.028298
v 0.406038 0.694703 -0.061300
v 0.468788 0.702130 -0.060958
v 0.437657 0.709840 -0.123895
v -0.529472 0.021965 0.175224
v -0.478607 0.453586 -0.061274
v -0.544802 0.238904 -0.019339
v -0.460980 0.228506 -0.015964
v -0.502980 0.211347 -0.090953
v 0.529471 0.021965 0.175224
v 0.478607 0.453586 -0.061274
v 0.460979 0.228506 -0.015964
v 0.544802 0.238904 -0.019339
v 0.502980 0.211347 -0.090953
v -0.215153 -0.522490 0.040074
v -0.275412 -1.235210 -0.055641
v -0.293946 -0.850187 -0.072540
v -0.187970 -0.860217 -0.070518
v -0.243605 -0.868311 0.027903
v 0.242656 -0.522475 0.040074
v 0.302299 -1.235247 -0.055641
v 0.214966 -0.860193 -0.070517
v 0.320951 -0.850264 -0.072541
v 0.270596 -0.868340 0.027903
v -0.185576 -0.130379 -0.080836
v -0.215116 -0.501607 0.033931
v -0.160830 -0.308998 0.025139
v -0.232110 -0.302496 0.027762
v -0.199693 -0.319504 -0.020026
v 0.213417 -0.130339 -0.080836
v 0.242637 -0.501593 0.033931
v 0.259693 -0.302510 0.027753
v 0.188406 -0.308948 0.025147
v 0.227278 -0.319487 -0.020026
v 0.142076 0.763841 -0.272765
v -0.142076 0.763841 -0.272765
v -0.353599 -1.344818 -0.111642
v -0.206401 -1.344818 -0.111642
v 0.310000 -1.349244 -0.189915
v -0.280000 -1.373281 0.227384
v 0.236401 -1.349244 -0.111642
v 0.383599 -1.349244 -0.111642
v -0.280000 -1.344818 -0.189915
v 0.310000 -1.377707 0.227384
v -0.000000 1.541225 -0.382727
v -0.071038 0.447451 -0.062017
v 0.071038 0.447451 -0.062017
v 0.213114 0.987785 -0.107528
v -0.213114 0.987784 -0.107528
v -0.000000 0.337358 -0.537079
v 0.000000 0.236865 -0.316346
vt 0.715549 0.605468
vt 0.789175 0.997089
vt 0.599671 0.745389
vt 0.321376 0.395357
vt 0.205211 0.253284
vt 0.394536 0.000000
vt 0.905663 0.600709
vt 0.975938 0.585281
vt 1.000000 0.953332
vt 0.843377 0.000000
vt 0.937074 0.239682
vt 0.832218 0.262703
vt 0.789175 0.268600
vt 0.664692 0.302840
vt 0.766524 0.000000
vt 0.000000 0.659566
vt 0.272078 0.704153
vt 0.082682 1.000000
vt 0.738847 0.312921
vt 0.751195 0.000000
vt 0.851560 0.307487
vt 0.729699 0.676942
vt 0.738847 1.000000
vt 0.601619 0.674076
vt 0.456752 0.324077
vt 0.601619 0.000000
vt 0.582861 0.319273
vt 0.851560 0.959829
vt 0.738847 0.000000
vt 0.601619 0.996663
vt 0.824467 0.652341
vt 0.705784 0.959828
vt 0.691183 0.646908
vt 0.505702 0.677390
vt 0.521977 0.996663
vt 0.396287 0.672586
vt 0.528909 0.325924
vt 0.691183 0.000000
vt 0.680366 0.323058
vt 0.824467 0.000000
vt 0.521977 0.000000
vt 0.691183 1.000000
vt 1.000000 0.300387
vt 1.000000 0.647663
vt 0.851560 0.322313
vt 0.385283 0.312351
vt 0.456752 0.687439
vt 0.231480 0.288998
vt 0.000000 0.398613
vt 0.231480 0.000000
vt 0.153464 0.377113
vt 0.859223 0.000000
vt 0.456752 0.000000
vt 0.231480 0.686740
vt 0.824467 0.325349
vt 1.000000 0.000000
vt 1.000000 0.347275
vt 0.448545 0.302562
vt 0.528909 0.692584
vt 0.266387 0.282264
vt 0.000000 0.398442
vt 0.266387 0.000000
vt 0.181874 0.375088
vt 0.833529 0.647662
vt 0.528909 0.000000
vt 0.266387 0.687439
vt 0.494673 0.502076
vt 0.341344 0.975162
vt 0.337666 0.479502
vt 0.169097 0.469558
vt 0.337666 0.000000
vt 0.337666 0.482327
vt 0.169097 0.517222
vt 0.169097 0.999688
vt 0.000000 0.531705
vt 0.494673 0.000000
vt 0.246527 1.000000
vt 0.074089 0.000000
vt 0.372647 0.495684
vt 0.377405 0.000000
vt 0.545936 0.473210
vt 0.000000 0.467945
vt 0.186609 0.000000
vt 0.186609 0.482466
vt 0.372647 0.517696
vt 0.372646 1.000000
vt 0.186609 0.530424
vt 0.545936 0.975219
vt 0.081426 0.999637
vt 0.272418 0.000000
vt 0.814389 0.278571
vt 0.710872 0.514579
vt 0.709343 0.260240
vt 0.908160 0.277416
vt 1.000000 0.000000
vt 0.997981 0.276959
vt 0.904665 0.264987
vt 0.908160 0.541946
vt 0.814389 0.264504
vt 0.814389 0.000000
vt 1.000000 0.541946
vt 0.908160 0.000000
vt 0.782845 0.254300
vt 0.784148 0.000000
vt 0.898761 0.235913
vt 0.792599 0.277441
vt 0.897500 0.000000
vt 0.893496 0.276956
vt 0.997859 0.264977
vt 1.000000 0.541933
vt 0.898761 0.264521
vt 0.898761 0.514504
vt 0.897500 0.541932
vt 1.000000 0.000000
vt 0.789175 0.334848
vt 1.000000 0.288562
vt 0.989947 0.448964
vt 0.849397 0.479821
vt 0.394536 0.341008
vt 0.593855 0.443088
vt 0.200790 0.561461
vt 0.494673 0.440751
vt 0.709343 0.000000
vt 0.709343 0.484041
vt 0.577368 0.568544
vt 0.545936 0.440740
vt 0.782845 0.000000
vt 0.782845 0.484028
vt 0.637198 0.568530
vt 0.478218 0.000512
vt 0.394536 0.733556
vt 0.369935 0.998644
vt 0.483502 0.705808
vt 0.089385 0.293674
vn 0.9774 -0.1159 -0.1770
vn -0.9774 -0.1159 -0.1770
vn -0.0000 0.0891 0.9960
vn 0.0000 -0.0645 0.9979
vn 0.9147 0.1891 0.3571
vn -0.9124 0.1650 -0.3746
vn 0.0021 -0.0283 0.9996
vn 0.8400 -0.2458 -0.4837
vn -0.8975 0.0336 -0.4398
vn -0.0159 -0.1796 0.9836
vn 0.8953 0.0337 -0.4441
vn -0.8818 0.2384 -0.4070
vn -0.0021 -0.0283 0.9996
vn 0.8975 0.0336 -0.4398
vn -0.8400 -0.2458 -0.4837
vn 0.0159 -0.1796 0.9836
vn 0.8818 0.2384 -0.4070
vn -0.8953 0.0337 -0.4441
vn 0.0531 0.6688 0.7415
vn 0.7781 -0.5458 -0.3109
vn -0.8554 -0.3780 -0.3541
vn -0.0151 0.1962 0.9805
vn 0.8749 -0.0288 -0.4834
vn -0.8277 0.1495 -0.5409
vn -0.0531 0.6688 0.7415
vn 0.8554 -0.3780 -0.3541
vn -0.7781 -0.5458 -0.3109
vn 0.0151 0.1962 0.9805
vn 0.8277 0.1495 -0.5409
vn -0.8749 -0.0288 -0.4834
vn 0.0478 0.3143 -0.9481
vn 0.8702 -0.0887 0.4846
vn -0.8884 0.0571 0.4555
vn 0.0150 -0.0431 -0.9990
vn 0.8623 -0.1823 0.4724
vn -0.8954 -0.0236 0.4445
vn -0.0476 0.3144 -0.9481
vn 0.8885 0.0557 0.4555
vn -0.8703 -0.0874 0.4847
vn -0.0150 -0.0431 -0.9990
vn 0.8954 -0.0239 0.4446
vn -0.8624 -0.1821 0.4724
vn 0.0785 0.5167 0.8526
vn -0.8402 -0.1082 -0.5314
vn 0.7620 -0.2491 -0.5977
vn 0.0399 0.0343 0.9986
vn -0.8386 -0.0882 -0.5375
vn 0.7626 -0.2423 -0.5998
vn -0.0778 0.5168 0.8526
vn -0.7622 -0.2481 -0.5980
vn 0.8402 -0.1092 -0.5312
vn -0.0396 0.0344 0.9986
vn -0.7627 -0.2420 -0.5998
vn 0.8386 -0.0885 -0.5375
vn 0.0000 -0.5937 0.8047
vn 0.9254 -0.0140 -0.3788
vn -0.9254 -0.0140 -0.3788
vn 0.0000 0.9977 0.0680
vn 0.0000 0.5544 0.8323
vn 0.0000 -0.9983 0.0581
vn 0.9124 0.1650 -0.3746
vn 0.9225 0.3822 0.0543
vn -0.9147 0.1891 0.3571
vn -0.9225 0.3822 0.0543
vn 0.9726 -0.2117 -0.0964
vn -0.9726 -0.2117 -0.0964
vn -0.9596 -0.2694 -0.0811
vn 0.9596 -0.2694 -0.0811
vn 0.9145 -0.0563 -0.4007
vn -0.9145 -0.0563 -0.4007
usemtl Mask_Man
s off
f 58/1/1 2/2/1 62/3/1
f 57/4/2 62/5/2 2/6/2
f 58/7/3 57/8/3 2/9/3
f 1/10/4 3/11/4 4/12/4
f 4/13/5 59/14/5 1/15/5
f 5/16/6 60/17/6 56/18/6
f 8/19/7 6/20/7 9/21/7
f 9/22/8 6/23/8 10/24/8
f 10/25/9 6/26/9 8/27/9
f 7/28/10 8/19/10 9/21/10
f 7/29/11 9/22/11 10/24/11
f 7/30/12 10/25/12 8/27/12
f 13/31/13 11/32/13 14/33/13
f 14/34/14 11/35/14 15/36/14
f 15/37/15 11/38/15 13/39/15
f 12/40/16 13/31/16 14/33/16
f 12/41/17 14/34/17 15/36/17
f 12/42/18 15/37/18 13/39/18
f 18/43/19 16/44/19 19/45/19
f 19/46/20 16/47/20 20/48/20
f 20/49/21 16/50/21 18/51/21
f 17/52/22 18/43/22 19/45/22
f 17/53/23 19/46/23 20/48/23
f 17/54/24 20/49/24 18/51/24
f 23/55/25 21/56/25 24/57/25
f 24/58/26 21/59/26 25/60/26
f 25/61/27 21/62/27 23/63/27
f 22/64/28 23/55/28 24/57/28
f 22/65/29 24/58/29 25/60/29
f 22/66/30 25/61/30 23/63/30
f 28/67/31 26/68/31 29/69/31
f 29/70/32 26/71/32 30/72/32
f 30/73/33 26/74/33 28/75/33
f 27/76/34 28/67/34 29/69/34
f 27/77/35 29/70/35 30/72/35
f 27/78/36 30/73/36 28/75/36
f 33/79/37 31/80/37 34/81/37
f 34/82/38 31/83/38 35/84/38
f 35/85/39 31/86/39 33/87/39
f 32/88/40 33/79/40 34/81/40
f 32/89/41 34/82/41 35/84/41
f 32/90/42 35/85/42 33/87/42
f 38/91/43 36/92/43 39/93/43
f 39/94/44 36/95/44 40/96/44
f 40/97/45 36/98/45 38/99/45
f 37/100/46 38/91/46 39/93/46
f 37/101/47 39/94/47 40/96/47
f 37/102/48 40/97/48 38/99/48
f 43/103/49 41/104/49 44/105/49
f 44/106/50 41/107/50 45/108/50
f 45/109/51 41/110/51 43/111/51
f 42/112/52 43/103/52 44/105/52
f 42/113/53 44/106/53 45/108/53
f 42/114/54 45/109/54 43/111/54
f 59/115/55 60/116/55 47/117/55 46/118/55
f 5/119/56 59/14/56 46/120/56
f 60/17/57 5/16/57 47/121/57
f 48/122/58 51/123/58 49/124/58 54/125/58
f 52/126/58 55/127/58 53/128/58 50/129/58
f 46/118/59 47/117/59 57/8/59 58/7/59
f 4/12/60 3/11/60 60/116/60 59/115/60
f 59/14/61 5/119/61 56/130/61
f 56/130/62 1/15/62 59/14/62
f 3/131/63 1/132/63 60/17/63
f 60/17/64 1/132/64 56/18/64
f 58/1/65 62/3/65 61/133/65
f 61/134/66 62/5/66 57/4/66
f 61/134/67 57/4/67 47/121/67
f 46/120/68 58/1/68 61/133/68
f 5/119/69 46/120/69 61/133/69
f 5/16/70 61/134/70 47/121/70
