# Blender v2.83.1 OBJ File: 'Tree.blend'
# www.blender.org
mtllib Tree.mtl
o Cone
v 0.000000 0.000000 -0.500000
v -0.125484 2.729776 -1.881137
v 0.475528 0.000000 -0.154508
v 1.722236 2.730039 -0.495550
v 0.293893 0.000000 0.404509
v 1.103477 2.730143 1.370714
v -0.293893 0.000000 0.404508
v -1.046404 2.730290 1.352052
v -0.475528 0.000000 -0.154509
v -1.790285 2.729664 -0.687048
v 0.000000 0.316270 -0.478282
v 0.454873 0.316270 -0.147797
v 0.281127 0.316270 0.386938
v -0.281127 0.316270 0.386938
v -0.454873 0.316270 -0.147797
v -0.771859 0.088416 -0.584091
v -0.792514 0.029960 -0.590802
v -0.316986 0.029960 -0.936293
v -0.316986 0.088416 -0.914575
v 0.211539 0.019994 -0.791158
v 0.687067 0.019994 -0.445667
v 0.666412 0.078450 -0.438955
v 0.211539 0.078450 -0.769440
v 0.922434 0.085768 0.004123
v 0.943089 0.027312 -0.002589
v 0.761453 0.027312 0.556428
v 0.748688 0.085768 0.538858
v 0.281127 0.091573 0.983059
v 0.293893 0.033117 1.000629
v -0.293893 0.033117 1.000629
v -0.281127 0.091573 0.983059
v -0.568405 0.075237 0.480280
v -0.581171 0.016781 0.497851
v -0.762806 0.016781 -0.061166
v -0.742151 0.075237 -0.054455
v 1.725454 3.851481 -0.496595
v -0.125484 3.851218 -1.884520
v 1.105466 3.851584 1.373452
v -1.048393 3.851731 1.354790
v -1.793503 3.851105 -0.688094
v 0.000000 2.241556 -0.346073
v 0.329135 2.241556 -0.106943
v 0.203417 2.241556 0.279979
v -0.203417 2.241556 0.279979
v -0.329135 2.241556 -0.106943
v 0.367668 4.241454 -0.119463
v -0.000001 4.241454 -0.386589
v 0.227231 4.241454 0.312757
v -0.227232 4.241454 0.312757
v -0.367669 4.241454 -0.119463
vt 1.000000 0.981021
vt 1.000000 1.000000
vt 0.800000 1.000000
vt 0.800000 0.981021
vt 0.600000 1.000000
vt 0.600000 0.981021
vt 0.400000 1.000000
vt 0.400000 0.981021
vt 0.800000 1.000000
vt 0.600000 1.000000
vt 0.200000 1.000000
vt 0.200000 0.981021
vt 0.000000 1.000000
vt 0.000000 0.981021
vt 0.000000 1.000000
vt 0.200000 1.000000
vt 0.200000 1.000000
vt 0.000000 1.000000
vt 1.000000 1.000000
vt 0.400000 1.000000
vt 0.478254 0.324164
vt 0.250000 0.490000
vt 0.021746 0.324164
vt 0.108932 0.055836
vt 0.391068 0.055836
vt 0.600000 1.000000
vt 0.400000 1.000000
vt 1.000000 1.000000
vt 0.800000 1.000000
vt 0.750000 0.490000
vt 0.978254 0.324164
vt 0.891068 0.055836
vt 0.608932 0.055836
vt 0.521746 0.324164
vt 0.200000 0.500000
vt 0.200000 0.567869
vt 0.200000 0.567869
vt 0.200000 0.500000
vt 0.200000 0.500000
vt 0.200000 0.567869
vt 0.600000 0.500000
vt 0.600000 0.567869
vt 0.600000 0.567869
vt 0.600000 0.500000
vt 0.800000 0.500000
vt 0.800000 0.567869
vt 0.800000 0.567869
vt 0.800000 0.500000
vt 0.800000 0.500000
vt 0.800000 0.567869
vt 0.000000 0.567869
vt 0.000000 0.500000
vt 1.000000 0.567869
vt 1.000000 0.500000
vt 1.000000 0.500000
vt 1.000000 0.567869
vt 0.521746 0.324164
vt 0.750000 0.490000
vt 0.000000 0.567869
vt 1.000000 0.500000
vt 1.000000 0.567869
vt 0.750000 0.490000
vt 0.978254 0.324164
vt 0.600000 0.567869
vt 0.600000 0.500000
vt 0.978254 0.324164
vt 0.891068 0.055836
vt 0.400000 0.567869
vt 0.400000 0.500000
vt 0.400000 0.567869
vt 0.400000 0.500000
vt 0.891068 0.055836
vt 0.608932 0.055836
vt 0.400000 0.500000
vt 0.400000 0.567869
vt 0.608932 0.055836
vt 0.521746 0.324164
vn 0.2339 -0.9204 -0.3132
vn 0.3583 -0.9261 0.1184
vn -0.0031 -0.9112 0.4119
vn 0.9492 -0.0024 0.3147
vn -0.3632 -0.9225 0.1304
vn -0.2022 -0.9381 -0.2813
vn -0.1689 0.9573 -0.2348
vn -0.5828 -0.0024 -0.8126
vn 0.5999 -0.0024 -0.8000
vn -0.0087 -0.0024 1.0000
vn -0.9394 -0.0024 0.3427
vn -0.0000 1.0000 -0.0000
vn -0.0024 0.9376 0.3477
vn 0.1966 0.9443 -0.2637
vn -0.3054 0.9460 0.1090
vn 0.3005 0.9486 0.0992
vn 0.0000 -1.0000 0.0000
vn -0.8145 0.0692 0.5761
vn -0.3330 0.0704 -0.9403
vn 0.9976 0.0690 0.0111
vn 0.3219 0.0693 -0.9442
vn 0.8193 0.0699 0.5691
vn -0.5629 0.2879 -0.7748
vn 0.7996 0.0692 -0.5966
vn -0.0326 -0.9985 -0.0449
vn -0.2288 0.9212 -0.3149
vn 0.5629 0.2879 -0.7748
vn -0.7944 0.0699 -0.6033
vn 0.3241 0.8343 -0.4460
vn 0.0326 -0.9985 -0.0449
vn 0.9108 0.2879 0.2959
vn 0.4037 0.9054 0.1312
vn -0.2946 0.0693 0.9531
vn 0.0528 -0.9985 0.0171
vn -0.0000 0.2879 0.9577
vn -0.0000 0.9357 0.3527
vn -0.9976 0.0690 0.0111
vn -0.0000 -0.9985 0.0555
vn -0.9108 0.2879 0.2959
vn -0.0528 -0.9985 0.0171
vn -0.5932 0.7816 0.1927
vn 0.2833 0.0704 0.9564
vn -0.5869 0.0555 -0.8078
vn -0.9496 0.0555 0.3085
vn 0.0000 0.0555 0.9985
vn 0.9496 0.0555 0.3085
vn 0.5869 0.0555 -0.8078
usemtl Leaves
s off
f 41/1/1 2/2/1 4/3/1 42/4/1
f 42/4/2 4/3/2 6/5/2 43/6/2
f 43/6/3 6/5/3 8/7/3 44/8/3
f 6/5/4 4/3/4 36/9/4 38/10/4
f 44/8/5 8/7/5 10/11/5 45/12/5
f 45/12/6 10/11/6 2/13/6 41/14/6
f 37/15/7 40/16/7 50/17/7 47/18/7
f 2/13/8 10/11/8 40/16/8 37/15/8
f 4/3/9 2/2/9 37/19/9 36/9/9
f 8/7/10 6/5/10 38/10/10 39/20/10
f 10/11/11 8/7/11 39/20/11 40/16/11
f 46/21/12 47/22/12 50/23/12 49/24/12 48/25/12
f 39/20/13 38/10/13 48/26/13 49/27/13
f 36/9/14 37/19/14 47/28/14 46/29/14
f 40/16/15 39/20/15 49/27/15 50/17/15
f 38/10/16 36/9/16 46/29/16 48/26/16
usemtl Trunk
f 1/30/17 3/31/17 5/32/17 7/33/17 9/34/17
f 9/35/18 15/36/18 16/37/18 17/38/18
f 15/36/19 9/35/19 34/39/19 35/40/19
f 5/41/20 13/42/20 28/43/20 29/44/20
f 3/45/21 12/46/21 24/47/21 25/48/21
f 12/46/22 3/45/22 21/49/22 22/50/22
f 17/38/23 16/37/23 19/51/23 18/52/23
f 11/53/24 1/54/24 18/55/24 19/56/24
f 1/30/25 9/34/25 17/57/25 18/58/25
f 15/36/26 11/59/26 19/51/26 16/37/26
f 20/60/27 23/61/27 22/50/27 21/49/27
f 1/54/28 11/53/28 23/61/28 20/60/28
f 11/53/29 12/46/29 22/50/29 23/61/29
f 3/31/30 1/30/30 20/62/30 21/63/30
f 25/48/31 24/47/31 27/64/31 26/65/31
f 12/46/32 13/42/32 27/64/32 24/47/32
f 13/42/33 5/41/33 26/65/33 27/64/33
f 5/32/34 3/31/34 25/66/34 26/67/34
f 29/44/35 28/43/35 31/68/35 30/69/35
f 13/42/36 14/70/36 31/68/36 28/43/36
f 14/70/37 7/71/37 30/69/37 31/68/37
f 7/33/38 5/32/38 29/72/38 30/73/38
f 33/74/39 32/75/39 35/40/39 34/39/39
f 9/34/40 7/33/40 33/76/40 34/77/40
f 14/70/41 15/36/41 35/40/41 32/75/41
f 7/71/42 14/70/42 32/75/42 33/74/42
f 15/36/43 45/12/43 41/14/43 11/59/43
f 14/70/44 44/8/44 45/12/44 15/36/44
f 13/42/45 43/6/45 44/8/45 14/70/45
f 12/46/46 42/4/46 43/6/46 13/42/46
f 11/53/47 41/1/47 42/4/47 12/46/47
