# Blender v2.83.1 OBJ File: 'Wooden Door.blend'
# www.blender.org
mtllib Wooden Door.mtl
o Cube_Cube.001
v -0.871657 0.026206 0.173417
v -0.871657 2.318024 0.173417
v -0.871657 0.026206 -0.168726
v -0.871657 2.318024 -0.168726
v 0.876545 0.026206 0.173417
v 0.876545 2.318024 0.173417
v 0.876545 0.026206 -0.168726
v 0.876545 2.318024 -0.168726
v -0.878743 0.019654 -0.144249
v -0.878742 2.323518 -0.144249
v 0.882408 0.019654 -0.144249
v 0.882408 2.323518 -0.144249
v -0.878742 0.019654 0.151991
v 0.882408 2.323518 0.151991
v -0.878742 2.323518 0.151991
v 0.882408 0.019654 0.151991
v -0.878742 2.323518 0.045773
v 0.882408 0.019654 0.045773
v -0.878742 0.019654 0.045773
v 0.882408 2.323518 0.045773
v -0.878742 2.323518 -0.033252
v 0.882408 0.019654 -0.033252
v -0.878742 0.019654 -0.033252
v 0.882408 2.323518 -0.033252
v 0.009925 0.019654 -0.176545
v 0.009925 2.323518 -0.176545
v 0.009925 0.019654 0.180063
v 0.009925 2.323518 0.180063
v 0.009925 2.340000 -0.144249
v 0.009925 0.000000 -0.144249
v 0.009925 2.340000 0.151991
v 0.009925 0.000000 0.151991
v 0.009925 0.000000 0.045773
v 0.009925 2.340000 0.045773
v 0.009925 2.340000 -0.033252
v 0.009925 0.000000 -0.033252
v 0.855880 2.323518 -0.176545
v 0.855880 0.019654 0.180063
v 0.855880 2.340000 -0.144249
v 0.855880 2.340000 0.151991
v 0.855880 2.340000 0.045773
v 0.855880 2.340000 -0.033252
v 0.855880 0.019654 -0.176545
v 0.855880 2.323518 0.180063
v 0.855880 0.000000 -0.144249
v 0.855880 0.000000 0.151991
v 0.855880 0.000000 0.045773
v 0.855880 0.000000 -0.033252
v 0.511437 0.019654 -0.176545
v 0.511437 2.323518 0.180063
v 0.511437 0.000000 -0.144249
v 0.511437 0.000000 0.151991
v 0.511437 0.000000 0.045773
v 0.511437 0.000000 -0.033252
v 0.511437 2.323518 -0.176545
v 0.511437 0.019654 0.180063
v 0.511437 2.340000 -0.144249
v 0.511437 2.340000 0.151991
v 0.511437 2.340000 0.045773
v 0.511437 2.340000 -0.033252
v -0.878742 2.296223 0.180063
v -0.878742 2.296223 -0.176545
v 0.882408 2.296223 -0.176545
v 0.882408 2.296223 0.180063
v 0.900000 2.296223 -0.144249
v -0.900000 2.296223 -0.144249
v -0.900000 2.296223 0.151991
v 0.900000 2.296223 0.151991
v 0.900000 2.296223 0.045773
v -0.900000 2.296223 0.045773
v 0.900000 2.296223 -0.033252
v -0.900000 2.296223 -0.033252
v 0.009925 2.296223 0.200000
v 0.009925 2.296223 -0.200000
v 0.855880 2.296223 0.200000
v 0.855880 2.296223 -0.200000
v 0.511437 2.296223 -0.200000
v 0.511437 2.296223 0.200000
v -0.878742 1.431429 -0.176545
v 0.882408 1.431429 -0.176545
v 0.882408 1.431429 0.180063
v 0.900000 1.431429 -0.144249
v -0.900000 1.431429 -0.144249
v -0.900000 1.431429 0.151991
v 0.900000 1.431429 0.151991
v 0.900000 1.431429 0.045773
v -0.900000 1.431429 0.045773
v 0.900000 1.431429 -0.033252
v -0.900000 1.431429 -0.033252
v 0.009925 1.431429 0.200000
v 0.009925 1.431429 -0.200000
v 0.855880 1.431429 0.200000
v 0.855880 1.431429 -0.200000
v 0.511437 1.431429 -0.200000
v 0.511437 1.431429 0.200000
v -0.878742 1.431429 0.180063
v -0.878742 0.052931 -0.176545
v 0.882408 0.052931 -0.176545
v 0.882408 0.052931 0.180063
v 0.900000 0.052931 -0.144249
v -0.900000 0.052931 -0.144249
v -0.900000 0.052931 0.151991
v 0.900000 0.052931 0.151991
v 0.900000 0.052931 0.045773
v -0.900000 0.052931 0.045773
v 0.900000 0.052931 -0.033252
v -0.900000 0.052931 -0.033252
v 0.009925 0.052931 0.200000
v 0.009925 0.052931 -0.200000
v 0.855880 0.052931 0.200000
v 0.855880 0.052931 -0.200000
v 0.511437 0.052931 -0.200000
v 0.511437 0.052931 0.200000
v -0.878742 0.052931 0.180063
v -0.878742 0.923247 0.180063
v -0.878742 0.923247 -0.176545
v 0.882408 0.923247 -0.176545
v 0.882408 0.923247 0.180063
v 0.900000 0.923247 -0.144249
v -0.900000 0.923247 -0.144249
v -0.900000 0.923247 0.151991
v 0.900000 0.923247 0.151991
v 0.900000 0.923247 0.045773
v -0.900000 0.923247 0.045773
v 0.900000 0.923247 -0.033252
v -0.900000 0.923247 -0.033252
v 0.009925 0.923247 0.200000
v 0.009925 0.923247 -0.200000
v 0.855880 0.923247 0.200000
v 0.855880 0.923247 -0.200000
v 0.511437 0.923247 -0.200000
v 0.511437 0.923247 0.200000
v -0.843908 0.019654 -0.176545
v -0.843908 2.323518 0.180063
v -0.843908 0.000000 -0.144249
v -0.843908 0.000000 0.151991
v -0.843908 0.000000 0.045773
v -0.843908 0.000000 -0.033252
v -0.843908 2.323518 -0.176545
v -0.843908 0.019654 0.180063
v -0.843908 2.340000 -0.144249
v -0.843908 2.340000 0.151991
v -0.843908 2.340000 0.045773
v -0.843908 2.340000 -0.033252
v -0.843908 2.296223 -0.200000
v -0.843908 2.296223 0.200000
v -0.843908 1.431429 0.200000
v -0.843908 1.431429 -0.200000
v -0.843908 0.052931 -0.200000
v -0.843908 0.052931 0.200000
v -0.843908 0.923247 -0.200000
v -0.843908 0.923247 0.200000
v -0.502232 2.323518 -0.176545
v -0.502232 0.019654 0.180063
v -0.502232 2.340000 -0.144249
v -0.502232 2.340000 0.151991
v -0.502232 2.340000 0.045773
v -0.502232 2.340000 -0.033252
v -0.502232 2.296223 -0.200000
v -0.502232 1.431429 -0.200000
v -0.502232 0.052931 -0.200000
v -0.502232 0.923247 -0.200000
v -0.502232 0.019654 -0.176545
v -0.502232 2.323518 0.180063
v -0.502232 0.000000 -0.144249
v -0.502232 0.000000 0.151991
v -0.502232 0.000000 0.045773
v -0.502232 0.000000 -0.033252
v -0.502232 2.296223 0.200000
v -0.502232 1.431429 0.200000
v -0.502232 0.052931 0.200000
v -0.502232 0.923247 0.200000
vt 0.500120 0.925469
vt 0.503948 0.925469
vt 0.505224 0.930693
vt 0.503948 0.932362
vt 0.816353 0.937367
vt 0.816353 0.932362
vt 0.820075 0.930693
vt 0.821131 0.932362
vt 0.824299 0.862249
vt 0.821131 0.862249
vt 0.820075 0.857677
vt 0.821131 0.856258
vt 0.510222 0.852003
vt 0.510222 0.856258
vt 0.505224 0.857677
vt 0.503948 0.856258
vt 0.816353 0.862249
vt 0.821131 0.862249
vt 0.820075 0.857677
vt 0.816353 0.856258
vt 0.510222 0.862249
vt 0.503948 0.862249
vt 0.510222 0.932362
vt 0.510222 0.925469
vt 0.816353 0.932362
vt 0.820075 0.930693
vt 0.821131 0.925469
vt 0.816353 0.925469
vt 0.821131 0.925469
vt 0.824299 0.925469
vt 0.500120 0.901782
vt 0.503948 0.901782
vt 0.500120 0.862249
vt 0.510222 0.884917
vt 0.503948 0.884917
vt 0.816353 0.884917
vt 0.821131 0.884917
vt 0.824299 0.884917
vt 0.821131 0.884917
vt 0.824299 0.901782
vt 0.821131 0.901782
vt 0.816353 0.901782
vt 0.821131 0.901782
vt 0.510222 0.901782
vt 0.500120 0.884917
vt 0.571758 0.925469
vt 0.663997 0.925469
vt 0.663997 0.901782
vt 0.571758 0.901782
vt 0.754319 0.925469
vt 0.663997 0.925469
vt 0.663997 0.901782
vt 0.754319 0.901782
vt 0.663997 0.884917
vt 0.754319 0.884917
vt 0.663997 0.884917
vt 0.571758 0.884917
vt 0.663997 0.862249
vt 0.571758 0.862249
vt 0.663997 0.862249
vt 0.754319 0.862249
vt 0.571758 0.932362
vt 0.663997 0.932362
vt 0.754319 0.932362
vt 0.663997 0.932362
vt 0.663997 0.856258
vt 0.754319 0.856258
vt 0.663997 0.856258
vt 0.571758 0.856258
vt 0.754319 0.852003
vt 0.663997 0.852003
vt 0.571758 0.937367
vt 0.571758 0.932362
vt 0.663997 0.937367
vt 0.816353 0.856258
vt 0.816353 0.852003
vt 0.816353 0.862249
vt 0.816353 0.925469
vt 0.816353 0.884917
vt 0.816353 0.901782
vt 0.754319 0.925469
vt 0.754319 0.901782
vt 0.754319 0.884917
vt 0.754319 0.862249
vt 0.754319 0.932362
vt 0.754319 0.856258
vt 0.754319 0.937367
vt 0.760527 0.021494
vt 0.972709 0.021494
vt 0.972709 0.100287
vt 0.760527 0.100287
vt 0.222542 0.752902
vt 0.222542 0.968988
vt 0.109046 0.968988
vt 0.109046 0.752902
vt 0.031096 0.968988
vt 0.031096 0.752902
vt 0.970232 0.767960
vt 0.970232 0.971558
vt 0.975028 0.971558
vt 0.975028 0.767960
vt 0.338448 0.752902
vt 0.338448 0.968988
vt 0.972709 0.215011
vt 0.760526 0.215011
vt 0.937929 0.767960
vt 0.937929 0.971558
vt 0.918920 0.971558
vt 0.918920 0.767960
vt 0.892220 0.767960
vt 0.892220 0.971558
vt 0.918920 0.971558
vt 0.918920 0.767960
vt 0.963479 0.767960
vt 0.963479 0.971558
vt 0.937929 0.971558
vt 0.937929 0.767960
vt 0.963479 0.971558
vt 0.963479 0.767960
vt 0.970232 0.767960
vt 0.970232 0.971558
vt 0.892220 0.971558
vt 0.892220 0.767960
vt 0.884452 0.767960
vt 0.884452 0.971558
vt 0.975028 0.767960
vt 0.975028 0.971558
vt 0.878809 0.767960
vt 0.878809 0.971558
vt 0.884452 0.971558
vt 0.884452 0.767960
vt 0.892220 0.648320
vt 0.884452 0.648320
vt 0.878809 0.648320
vt 0.884452 0.648320
vt 0.963479 0.648320
vt 0.970232 0.648320
vt 0.975028 0.648320
vt 0.970232 0.648320
vt 0.892220 0.648320
vt 0.918920 0.648320
vt 0.963479 0.648320
vt 0.937929 0.648320
vt 0.918920 0.648320
vt 0.937929 0.648320
vt 0.635841 0.100287
vt 0.635841 0.215011
vt 0.338448 0.625922
vt 0.222542 0.625922
vt 0.975028 0.648320
vt 0.109046 0.625922
vt 0.031096 0.625922
vt 0.635841 0.021494
vt 0.816353 0.852003
vt 0.754319 0.852003
vt 0.663997 0.937367
vt 0.754319 0.937367
vt 0.816353 0.937367
vt 0.821131 0.856258
vt 0.571758 0.937367
vt 0.663997 0.852003
vt 0.503948 0.884917
vt 0.500120 0.884917
vt 0.500120 0.901782
vt 0.503948 0.901782
vt 0.824299 0.925469
vt 0.824299 0.901782
vt 0.503948 0.862249
vt 0.500120 0.862249
vt 0.824299 0.884917
vt 0.824299 0.862249
vt 0.505224 0.857677
vt 0.503948 0.856258
vt 0.500120 0.925469
vt 0.503948 0.925469
vt 0.821131 0.932362
vt 0.510222 0.856258
vt 0.510222 0.852003
vt 0.503948 0.932362
vt 0.505224 0.930693
vt 0.422304 0.021494
vt 0.422304 0.100287
vt 0.222542 0.408456
vt 0.109046 0.408456
vt 0.031096 0.408456
vt 0.970232 0.443422
vt 0.975028 0.443422
vt 0.338448 0.408456
vt 0.422304 0.215011
vt 0.937929 0.443422
vt 0.918920 0.443422
vt 0.892220 0.443422
vt 0.918920 0.443422
vt 0.963479 0.443422
vt 0.937929 0.443422
vt 0.963479 0.443422
vt 0.970232 0.443422
vt 0.892220 0.443422
vt 0.884452 0.443422
vt 0.975028 0.443422
vt 0.878809 0.443422
vt 0.884452 0.443422
vt 0.422304 0.332170
vt 0.635841 0.332170
vt 0.635841 0.410330
vt 0.422304 0.410330
vt 0.878809 0.648320
vt 0.878809 0.443422
vt 0.571758 0.852003
vt 0.510222 0.937367
vt 0.510222 0.932362
vt 0.878809 0.767960
vt 0.760527 0.332170
vt 0.760527 0.410330
vt 0.972709 0.332170
vt 0.972709 0.410330
vt 0.878809 0.971558
vt 0.510222 0.937367
vt 0.510222 0.862249
vt 0.510222 0.925469
vt 0.510222 0.884917
vt 0.510222 0.901782
vt 0.571758 0.925469
vt 0.571758 0.901782
vt 0.571758 0.884917
vt 0.571758 0.862249
vt 0.571758 0.856258
vt 0.571758 0.852003
vt 0.415772 0.408456
vt 0.415772 0.625922
vt 0.415772 0.752902
vt 0.415772 0.968988
vn -0.7532 0.5024 -0.4246
vn 0.5174 0.5029 -0.6924
vn 0.7934 0.4365 0.4244
vn -0.3780 0.4824 0.7902
vn 0.4805 -0.7502 0.4541
vn -0.3399 0.8405 0.4218
vn -0.3485 0.8587 -0.3759
vn 0.4941 -0.7688 -0.4059
vn 0.8105 0.4474 -0.3781
vn -0.7890 0.6144 0.0000
vn -0.7333 0.4875 0.4740
vn -0.4277 0.9039 0.0000
vn 0.5953 -0.8035 0.0000
vn 0.8406 0.5417 0.0000
vn 0.0000 -1.0000 0.0000
vn 0.0000 1.0000 0.0000
vn 0.0000 -0.8542 -0.5199
vn 0.0000 0.8907 -0.4546
vn 0.0000 0.8624 0.5063
vn 0.0000 -0.8192 0.5735
vn 0.0000 0.5898 0.8075
vn 0.0000 0.6517 -0.7584
vn 0.4755 0.4621 0.7486
vn 0.4320 0.8042 0.4082
vn 0.4421 0.8202 -0.3632
vn 0.5277 0.8494 0.0000
vn 0.0000 0.0000 1.0000
vn 0.0000 0.0000 -1.0000
vn 0.6008 0.0000 0.7994
vn -1.0000 0.0000 0.0000
vn 1.0000 0.0000 0.0000
vn -0.7972 0.0000 0.6037
vn 0.8782 0.0000 -0.4783
vn -0.4967 0.0000 0.8679
vn 0.8474 0.0000 0.5310
vn 0.6624 0.0000 -0.7492
vn -0.8353 0.0000 -0.5498
vn 0.0000 -0.5139 0.8578
vn 0.0000 -0.5761 -0.8174
vn 0.4922 -0.3924 0.7771
vn -0.8427 -0.5383 0.0000
vn 0.8841 -0.4674 0.0000
vn -0.7645 -0.4157 0.4927
vn 0.8391 -0.3789 -0.3904
vn -0.3925 -0.4109 0.8229
vn 0.8201 -0.3690 0.4374
vn 0.5394 -0.4300 -0.7239
vn -0.7872 -0.4295 -0.4426
vn -0.5585 0.0000 -0.8295
vn -0.4356 -0.4560 -0.7761
vn -0.4157 0.5305 -0.7387
vn -0.3824 -0.7929 0.4745
vn -0.3943 -0.8147 -0.4253
vn -0.4914 -0.8709 0.0000
usemtl Material.001
s off
f 66/1/1 10/2/1 4/3/1 62/4/1
f 76/5/2 37/6/2 8/7/2 63/8/2
f 68/9/3 14/10/3 6/11/3 64/12/3
f 146/13/4 134/14/4 2/15/4 61/16/4
f 46/17/5 16/18/5 5/19/5 38/20/5
f 142/21/6 15/22/6 2/15/6 134/14/6
f 139/23/7 4/3/7 10/2/7 141/24/7
f 43/25/8 7/26/8 11/27/8 45/28/8
f 63/8/9 8/7/9 12/29/9 65/30/9
f 72/31/10 21/32/10 10/2/10 66/1/10
f 61/16/11 2/15/11 15/22/11 67/33/11
f 143/34/12 17/35/12 15/22/12 142/21/12
f 47/36/13 18/37/13 16/18/13 46/17/13
f 69/38/14 20/39/14 14/10/14 68/9/14
f 71/40/14 24/41/14 20/39/14 69/38/14
f 48/42/13 22/43/13 18/37/13 47/36/13
f 144/44/12 21/32/12 17/35/12 143/34/12
f 67/33/10 15/22/10 17/35/10 70/45/10
f 141/24/12 10/2/12 21/32/12 144/44/12
f 45/28/13 11/27/13 22/43/13 48/42/13
f 65/30/14 12/29/14 24/41/14 71/40/14
f 70/45/10 17/35/10 21/32/10 72/31/10
f 165/46/15 30/47/15 36/48/15 168/49/15
f 57/50/16 29/51/16 35/52/16 60/53/16
f 60/53/16 35/52/16 34/54/16 59/55/16
f 168/49/15 36/48/15 33/56/15 167/57/15
f 167/57/15 33/56/15 32/58/15 166/59/15
f 59/55/16 34/54/16 31/60/16 58/61/16
f 163/62/17 25/63/17 30/47/17 165/46/17
f 55/64/18 26/65/18 29/51/18 57/50/18
f 58/61/19 31/60/19 28/66/19 50/67/19
f 166/59/20 32/58/20 27/68/20 154/69/20
f 78/70/21 50/67/21 28/66/21 73/71/21
f 159/72/22 153/73/22 26/65/22 74/74/22
f 64/12/23 6/11/23 44/75/23 75/76/23
f 14/10/24 40/77/24 44/75/24 6/11/24
f 8/7/25 37/6/25 39/78/25 12/29/25
f 20/39/26 41/79/26 40/77/26 14/10/26
f 24/41/26 42/80/26 41/79/26 20/39/26
f 12/29/26 39/78/26 42/80/26 24/41/26
f 51/81/15 45/28/15 48/42/15 54/82/15
f 54/82/15 48/42/15 47/36/15 53/83/15
f 53/83/15 47/36/15 46/17/15 52/84/15
f 49/85/17 43/25/17 45/28/17 51/81/17
f 52/84/20 46/17/20 38/20/20 56/86/20
f 77/87/22 55/64/22 37/6/22 76/5/22
f 74/74/22 26/65/22 55/64/22 77/87/22
f 32/58/20 52/84/20 56/86/20 27/68/20
f 25/63/17 49/85/17 51/81/17 30/47/17
f 33/56/15 53/83/15 52/84/15 32/58/15
f 36/48/15 54/82/15 53/83/15 33/56/15
f 30/47/15 51/81/15 54/82/15 36/48/15
f 75/76/21 44/75/21 50/67/21 78/70/21
f 40/77/19 58/61/19 50/67/19 44/75/19
f 37/6/18 55/64/18 57/50/18 39/78/18
f 41/79/16 59/55/16 58/61/16 40/77/16
f 42/80/16 60/53/16 59/55/16 41/79/16
f 39/78/16 57/50/16 60/53/16 42/80/16
f 92/88/27 75/89/27 78/90/27 95/91/27
f 91/92/28 74/93/28 77/94/28 94/95/28
f 94/95/28 77/94/28 76/96/28 93/97/28
f 81/98/29 64/99/29 75/100/29 92/101/29
f 160/102/28 159/103/28 74/93/28 91/92/28
f 95/91/27 78/90/27 73/104/27 90/105/27
f 87/106/30 70/107/30 72/108/30 89/109/30
f 82/110/31 65/111/31 71/112/31 88/113/31
f 84/114/30 67/115/30 70/107/30 87/106/30
f 88/113/31 71/112/31 69/116/31 86/117/31
f 86/117/31 69/116/31 68/118/31 85/119/31
f 96/120/32 61/121/32 67/115/32 84/114/32
f 89/109/30 72/108/30 66/122/30 83/123/30
f 80/124/33 63/125/33 65/111/33 82/110/33
f 147/126/34 146/127/34 61/121/34 96/120/34
f 85/119/35 68/118/35 64/99/35 81/98/35
f 93/128/36 76/129/36 63/125/36 80/124/36
f 83/123/37 66/122/37 62/130/37 79/131/37
f 120/132/37 83/123/37 79/131/37 116/133/37
f 130/134/36 93/128/36 80/124/36 117/135/36
f 122/136/35 85/119/35 81/98/35 118/137/35
f 152/138/34 147/126/34 96/120/34 115/139/34
f 117/135/33 80/124/33 82/110/33 119/140/33
f 126/141/30 89/109/30 83/123/30 120/132/30
f 115/139/32 96/120/32 84/114/32 121/142/32
f 123/143/31 86/117/31 85/119/31 122/136/31
f 125/144/31 88/113/31 86/117/31 123/143/31
f 121/142/30 84/114/30 87/106/30 124/145/30
f 119/140/31 82/110/31 88/113/31 125/144/31
f 124/145/30 87/106/30 89/109/30 126/141/30
f 132/146/27 95/91/27 90/105/27 127/147/27
f 162/148/28 160/102/28 91/92/28 128/149/28
f 118/137/29 81/98/29 92/101/29 129/150/29
f 131/151/28 94/95/28 93/97/28 130/152/28
f 128/149/28 91/92/28 94/95/28 131/151/28
f 129/153/27 92/88/27 95/91/27 132/146/27
f 38/20/38 110/154/38 113/155/38 56/86/38
f 25/63/39 109/156/39 112/157/39 49/85/39
f 49/85/39 112/157/39 111/158/39 43/25/39
f 5/19/40 99/159/40 110/154/40 38/20/40
f 163/62/39 161/160/39 109/156/39 25/63/39
f 56/86/38 113/155/38 108/161/38 27/68/38
f 19/162/41 105/163/41 107/164/41 23/165/41
f 11/27/42 100/166/42 106/167/42 22/43/42
f 13/168/41 102/169/41 105/163/41 19/162/41
f 22/43/42 106/167/42 104/170/42 18/37/42
f 18/37/42 104/170/42 103/171/42 16/18/42
f 1/172/43 114/173/43 102/169/43 13/168/43
f 23/165/41 107/164/41 101/174/41 9/175/41
f 7/26/44 98/176/44 100/166/44 11/27/44
f 140/177/45 150/178/45 114/173/45 1/172/45
f 16/18/46 103/171/46 99/159/46 5/19/46
f 43/25/47 111/158/47 98/176/47 7/26/47
f 9/175/48 101/174/48 97/179/48 3/180/48
f 110/181/27 129/153/27 132/146/27 113/182/27
f 109/183/28 128/149/28 131/151/28 112/184/28
f 112/184/28 131/151/28 130/152/28 111/185/28
f 99/186/29 118/137/29 129/150/29 110/187/29
f 161/188/28 162/148/28 128/149/28 109/183/28
f 113/182/27 132/146/27 127/147/27 108/189/27
f 105/190/30 124/145/30 126/141/30 107/191/30
f 100/192/31 119/140/31 125/144/31 106/193/31
f 102/194/30 121/142/30 124/145/30 105/190/30
f 106/193/31 125/144/31 123/143/31 104/195/31
f 104/195/31 123/143/31 122/136/31 103/196/31
f 114/197/32 115/139/32 121/142/32 102/194/32
f 107/191/30 126/141/30 120/132/30 101/198/30
f 98/199/33 117/135/33 119/140/33 100/192/33
f 150/200/34 152/138/34 115/139/34 114/197/34
f 103/196/35 122/136/35 118/137/35 99/186/35
f 111/201/36 130/134/36 117/135/36 98/199/36
f 101/198/37 120/132/37 116/133/37 97/202/37
f 171/203/27 172/204/27 152/205/27 150/206/27
f 97/202/49 116/133/49 151/207/49 149/208/49
f 154/69/38 171/209/38 150/178/38 140/177/38
f 3/180/50 97/179/50 149/210/50 133/211/50
f 116/133/49 79/131/49 148/212/49 151/207/49
f 172/204/27 170/213/27 147/214/27 152/205/27
f 170/213/27 169/215/27 146/216/27 147/214/27
f 79/131/49 62/130/49 145/217/49 148/212/49
f 62/4/51 4/3/51 139/23/51 145/218/51
f 13/168/52 136/219/52 140/177/52 1/172/52
f 3/180/53 133/211/53 135/220/53 9/175/53
f 19/162/54 137/221/54 136/219/54 13/168/54
f 23/165/54 138/222/54 137/221/54 19/162/54
f 9/175/54 135/220/54 138/222/54 23/165/54
f 155/223/16 141/24/16 144/44/16 158/224/16
f 158/224/16 144/44/16 143/34/16 157/225/16
f 157/225/16 143/34/16 142/21/16 156/226/16
f 153/73/18 139/23/18 141/24/18 155/223/18
f 156/226/19 142/21/19 134/14/19 164/227/19
f 169/228/21 164/227/21 134/14/21 146/13/21
f 73/71/21 28/66/21 164/227/21 169/228/21
f 31/60/19 156/226/19 164/227/19 28/66/19
f 26/65/18 153/73/18 155/223/18 29/51/18
f 34/54/16 157/225/16 156/226/16 31/60/16
f 35/52/16 158/224/16 157/225/16 34/54/16
f 29/51/16 155/223/16 158/224/16 35/52/16
f 90/105/27 73/104/27 169/215/27 170/213/27
f 127/147/27 90/105/27 170/213/27 172/204/27
f 27/68/38 108/161/38 171/209/38 154/69/38
f 108/189/27 127/147/27 172/204/27 171/203/27
f 149/229/28 151/230/28 162/148/28 161/188/28
f 133/211/39 149/210/39 161/160/39 163/62/39
f 151/230/28 148/231/28 160/102/28 162/148/28
f 148/231/28 145/232/28 159/103/28 160/102/28
f 145/218/22 139/23/22 153/73/22 159/72/22
f 136/219/20 166/59/20 154/69/20 140/177/20
f 133/211/17 163/62/17 165/46/17 135/220/17
f 137/221/15 167/57/15 166/59/15 136/219/15
f 138/222/15 168/49/15 167/57/15 137/221/15
f 135/220/15 165/46/15 168/49/15 138/222/15
